<svg width="200" height="200" viewBox="0 0 200 200" fill="none" xmlns="http://www.w3.org/2000/svg">
<g clip-path="url(#clip0_897_3806)">
<rect width="200" height="200" rx="100" fill="url(#paint0_linear_897_3806)"/>
<path d="M148.333 106.334C153.741 88.3736 157.075 57.6676 134.333 36.6676C116.953 20.6183 69.9999 19.001 53.6666 54.001C50.9399 59.8436 54.6666 69.001 61.9999 68.6676C64.8819 68.5343 66.6666 77.6676 68.3333 83.3343C65.9999 106.334 45.2119 106.759 34.6666 124.334C21.6666 146.001 37.6666 178.001 75.9999 178.001C114.333 178.001 136.308 146.271 148.333 106.334Z" fill="url(#paint1_linear_897_3806)"/>
<path d="M161.333 158.951C166.222 168.367 168.667 202.668 168.667 202.668H31.3335C31.3335 202.668 33.7782 168.367 38.6668 158.951C46.0002 144.827 100 126.668 100 126.668C100 126.668 154 144.827 161.333 158.951Z" fill="url(#paint2_linear_897_3806)"/>
<path d="M116 134.667C116 134.667 107.489 139.334 99.66 139.334C91.8307 139.334 84 134.667 84 134.667V120.001C82.3157 120.267 80.6094 120.368 78.9054 120.303C62.9134 120.302 56.8834 97.008 60 68.6673C62 68.6673 66.6667 68.6673 73.3334 59.334C71.6667 72.334 91 70.334 98.3334 60.0007C94.6667 72.334 104.333 80.6673 112.667 75.6673C129.007 65.8627 132.681 95.7513 116 96.0006V134.667Z" fill="url(#paint3_linear_897_3806)"/>
<g style="mix-blend-mode:multiply" opacity="0.782">
<path d="M84 120C92.2699 118.477 100.183 115.425 107.333 111C107.333 111 99 125.333 84 125.333V120Z" fill="#FFD7B8"/>
</g>
<path d="M100.022 138.651C104.84 138.433 116 136.073 116 130.975V126.668C117.222 126.668 120.723 129.556 122.524 132.001C129.641 141.668 121.746 150.335 115.308 150.335C107.184 150.335 101.8 143.547 99.9997 140.281C98.1997 143.548 92.8157 150.335 84.6917 150.335C78.2531 150.335 70.3584 141.668 77.4757 132.001C79.2764 129.556 82.7771 126.668 83.9997 126.668V130.975C83.9997 136.073 95.4611 138.433 100.022 138.651Z" fill="white"/>
<path d="M97.3335 184.001C97.3335 183.474 97.4899 182.958 97.7829 182.52C98.0759 182.081 98.4924 181.739 98.9797 181.538C99.4669 181.336 100.003 181.283 100.52 181.386C101.038 181.489 101.513 181.743 101.886 182.116C102.259 182.489 102.513 182.964 102.616 183.481C102.718 183.998 102.666 184.535 102.464 185.022C102.262 185.509 101.92 185.926 101.482 186.219C101.043 186.512 100.528 186.668 100 186.668C99.2929 186.668 98.6146 186.387 98.1145 185.887C97.6144 185.387 97.3335 184.709 97.3335 184.001ZM97.3335 170.668C97.3335 170.141 97.4899 169.625 97.7829 169.186C98.0759 168.748 98.4924 168.406 98.9797 168.204C99.4669 168.002 100.003 167.95 100.52 168.053C101.038 168.155 101.513 168.409 101.886 168.782C102.259 169.155 102.513 169.63 102.616 170.148C102.718 170.665 102.666 171.201 102.464 171.688C102.262 172.176 101.92 172.592 101.482 172.885C101.043 173.178 100.528 173.335 100 173.335C99.2929 173.335 98.6146 173.054 98.1145 172.554C97.6144 172.053 97.3335 171.375 97.3335 170.668ZM97.3335 157.335C97.3335 156.807 97.4899 156.292 97.7829 155.853C98.0759 155.415 98.4924 155.073 98.9797 154.871C99.4669 154.669 100.003 154.616 100.52 154.719C101.038 154.822 101.513 155.076 101.886 155.449C102.259 155.822 102.513 156.297 102.616 156.814C102.718 157.332 102.666 157.868 102.464 158.355C102.262 158.842 101.92 159.259 101.482 159.552C101.043 159.845 100.528 160.001 100 160.001C99.2929 160.001 98.6146 159.72 98.1145 159.22C97.6144 158.72 97.3335 158.042 97.3335 157.335Z" fill="url(#paint4_linear_897_3806)"/>
</g>
<defs>
<linearGradient id="paint0_linear_897_3806" x1="100" y1="200" x2="100" y2="0" gradientUnits="userSpaceOnUse">
<stop stop-color="#FFC9B3"/>
<stop offset="1" stop-color="#FFD2C2"/>
</linearGradient>
<linearGradient id="paint1_linear_897_3806" x1="91.2547" y1="25.7266" x2="91.2547" y2="178.001" gradientUnits="userSpaceOnUse">
<stop stop-color="#130027"/>
<stop offset="1" stop-color="#130017"/>
</linearGradient>
<linearGradient id="paint2_linear_897_3806" x1="100" y1="202.668" x2="100" y2="126.668" gradientUnits="userSpaceOnUse">
<stop stop-color="#E6864E"/>
<stop offset="1" stop-color="#E67240"/>
</linearGradient>
<linearGradient id="paint3_linear_897_3806" x1="93.0311" y1="59.334" x2="93.0311" y2="139.334" gradientUnits="userSpaceOnUse">
<stop stop-color="#FFE0CC"/>
<stop offset="1" stop-color="#FFEADB"/>
</linearGradient>
<linearGradient id="paint4_linear_897_3806" x1="100" y1="154.668" x2="100" y2="186.668" gradientUnits="userSpaceOnUse">
<stop stop-color="#130027"/>
<stop offset="1" stop-color="#130017"/>
</linearGradient>
<clipPath id="clip0_897_3806">
<rect width="200" height="200" rx="100" fill="white"/>
</clipPath>
</defs>
</svg>
