<svg width="200" height="200" viewBox="0 0 200 200" fill="none" xmlns="http://www.w3.org/2000/svg">
<g clip-path="url(#clip0_897_3803)">
<rect width="200" height="200" rx="100" fill="url(#paint0_linear_897_3803)"/>
<path d="M132.788 85.3916C180.415 46.375 135.465 10.6878 87.1752 29.6947C82.0094 31.7282 67.6947 23.5876 54.4346 32.1638C45.8809 37.6961 49.2098 42.0316 45.8792 46.3673C42.5486 50.7029 29.7079 50.4478 26.8949 61.7058C25.2289 68.3756 29.8393 75.362 29.2226 80.3822C28.606 85.4024 23.7377 89.9276 23.5055 96.555C23.405 99.3541 23.8569 102.146 24.8354 104.77C25.8139 107.395 27.2998 109.801 29.2083 111.851C31.1169 113.901 33.4105 115.555 35.9584 116.718C38.5063 117.882 41.2584 118.532 44.0575 118.632C44.0804 124.166 46.2411 129.476 50.0881 133.454C53.9351 137.432 59.1707 139.769 64.7006 139.977C68.3762 140.106 77.6829 140.107 85.6804 135.283C105.72 123.197 101.224 111.248 132.788 85.3916Z" fill="white"/>
<path d="M83.3333 129.333C83.3333 123.333 83.1293 93.738 83.1393 93.238C66.6666 95.666 67 64.3327 83.6666 71.9993C87.3333 74.3327 97.6666 71.9993 96.6666 52.666C114.667 71.9993 135.565 49.45 137.357 67.8247C139.804 92.9147 137.342 119.172 121.749 119.174C120.044 119.153 118.343 118.983 116.667 118.666V129.333C116.667 135.999 128.667 139.333 128.667 139.333C128.667 139.333 107.939 158.866 99.3333 158.758C90.728 158.65 71.3333 139.333 71.3333 139.333C71.3333 139.333 83.3333 135.999 83.3333 129.333Z" fill="url(#paint1_linear_897_3803)"/>
<path d="M116.666 118.664C108.396 116.829 100.558 113.411 93.5872 108.598C93.5872 108.598 99.3392 122.66 116.645 125.328L116.666 118.664Z" fill="#DB6F3D"/>
<path d="M161.333 159.333C166.17 170.081 168.667 202.667 168.667 202.667H31.3335C31.3335 202.667 33.8302 170.081 38.6668 159.333C42.9042 149.918 70.8262 139.107 79.0088 136C83.7335 141.285 90.5042 144.667 100 144.667C109.496 144.667 116.267 141.285 120.991 136C129.174 139.107 157.096 149.918 161.333 159.333Z" fill="url(#paint2_linear_897_3803)"/>
<mask id="mask0_897_3803" style="mask-type:alpha" maskUnits="userSpaceOnUse" x="31" y="136" width="138" height="67">
<path d="M161.333 159.333C166.17 170.081 168.667 202.667 168.667 202.667H31.3335C31.3335 202.667 33.8302 170.081 38.6668 159.333C42.9042 149.918 70.8262 139.107 79.0088 136C83.7335 141.285 90.5042 144.667 100 144.667C109.496 144.667 116.267 141.285 120.991 136C129.174 139.107 157.096 149.918 161.333 159.333Z" fill="url(#paint3_linear_897_3803)"/>
</mask>
<g mask="url(#mask0_897_3803)">
<path d="M162.667 195.999C162.667 195.208 162.901 194.435 163.341 193.777C163.78 193.119 164.405 192.607 165.136 192.304C165.867 192.001 166.671 191.922 167.447 192.076C168.223 192.231 168.936 192.611 169.495 193.171C170.055 193.73 170.436 194.443 170.59 195.219C170.744 195.995 170.665 196.799 170.362 197.53C170.06 198.261 169.547 198.886 168.889 199.325C168.231 199.765 167.458 199.999 166.667 199.999C165.606 199.999 164.589 199.578 163.838 198.828C163.088 198.078 162.667 197.06 162.667 195.999ZM136 195.999C136 195.208 136.235 194.435 136.674 193.777C137.114 193.119 137.739 192.607 138.469 192.304C139.2 192.001 140.005 191.922 140.781 192.076C141.556 192.231 142.269 192.611 142.829 193.171C143.388 193.73 143.769 194.443 143.923 195.219C144.078 195.995 143.998 196.799 143.696 197.53C143.393 198.261 142.88 198.886 142.222 199.325C141.565 199.765 140.791 199.999 140 199.999C138.939 199.999 137.922 199.578 137.172 198.828C136.422 198.078 136 197.06 136 195.999ZM109.333 195.999C109.333 195.208 109.568 194.435 110.008 193.777C110.447 193.119 111.072 192.607 111.803 192.304C112.534 192.001 113.338 191.922 114.114 192.076C114.89 192.231 115.603 192.611 116.162 193.171C116.721 193.73 117.102 194.443 117.257 195.219C117.411 195.995 117.332 196.799 117.029 197.53C116.726 198.261 116.214 198.886 115.556 199.325C114.898 199.765 114.125 199.999 113.333 199.999C112.273 199.999 111.255 199.578 110.505 198.828C109.755 198.078 109.333 197.06 109.333 195.999ZM82.6668 195.999C82.6668 195.208 82.9014 194.435 83.341 193.777C83.7805 193.119 84.4052 192.607 85.1361 192.304C85.867 192.001 86.6713 191.922 87.4472 192.076C88.2231 192.231 88.9358 192.611 89.4953 193.171C90.0547 193.73 90.4356 194.443 90.59 195.219C90.7443 195.995 90.6651 196.799 90.3623 197.53C90.0596 198.261 89.5469 198.886 88.8891 199.325C88.2313 199.765 87.458 199.999 86.6668 199.999C85.606 199.999 84.5886 199.578 83.8384 198.828C83.0883 198.078 82.6668 197.06 82.6668 195.999ZM56.0002 195.999C56.0002 195.208 56.2348 194.435 56.6743 193.777C57.1138 193.119 57.7385 192.607 58.4694 192.304C59.2003 192.001 60.0046 191.922 60.7805 192.076C61.5564 192.231 62.2692 192.611 62.8286 193.171C63.388 193.73 63.769 194.443 63.9233 195.219C64.0776 195.995 63.9984 196.799 63.6957 197.53C63.3929 198.261 62.8802 198.886 62.2224 199.325C61.5646 199.765 60.7913 199.999 60.0002 199.999C58.9393 199.999 57.9219 199.578 57.1717 198.828C56.4216 198.078 56.0002 197.06 56.0002 195.999ZM29.3335 195.999C29.3335 195.208 29.5681 194.435 30.0076 193.777C30.4471 193.119 31.0719 192.607 31.8028 192.304C32.5337 192.001 33.3379 191.922 34.1139 192.076C34.8898 192.231 35.6025 192.611 36.1619 193.171C36.7213 193.73 37.1023 194.443 37.2566 195.219C37.411 195.995 37.3318 196.799 37.029 197.53C36.7263 198.261 36.2136 198.886 35.5558 199.325C34.898 199.765 34.1246 199.999 33.3335 199.999C32.2726 199.999 31.2552 199.578 30.5051 198.828C29.7549 198.078 29.3335 197.06 29.3335 195.999V195.999ZM149.333 182.666C149.333 181.875 149.568 181.102 150.008 180.444C150.447 179.786 151.072 179.273 151.803 178.97C152.534 178.668 153.338 178.589 154.114 178.743C154.89 178.897 155.603 179.278 156.162 179.838C156.721 180.397 157.102 181.11 157.257 181.886C157.411 182.662 157.332 183.466 157.029 184.197C156.726 184.928 156.214 185.552 155.556 185.992C154.898 186.431 154.125 186.666 153.333 186.666C152.273 186.666 151.255 186.245 150.505 185.494C149.755 184.744 149.333 183.727 149.333 182.666ZM122.667 182.666C122.667 181.875 122.901 181.102 123.341 180.444C123.78 179.786 124.405 179.273 125.136 178.97C125.867 178.668 126.671 178.589 127.447 178.743C128.223 178.897 128.936 179.278 129.495 179.838C130.055 180.397 130.436 181.11 130.59 181.886C130.744 182.662 130.665 183.466 130.362 184.197C130.06 184.928 129.547 185.552 128.889 185.992C128.231 186.431 127.458 186.666 126.667 186.666C125.606 186.666 124.589 186.245 123.838 185.494C123.088 184.744 122.667 183.727 122.667 182.666ZM96.0002 182.666C96.0002 181.875 96.2348 181.102 96.6743 180.444C97.1138 179.786 97.7385 179.273 98.4694 178.97C99.2003 178.668 100.005 178.589 100.781 178.743C101.556 178.897 102.269 179.278 102.829 179.838C103.388 180.397 103.769 181.11 103.923 181.886C104.078 182.662 103.998 183.466 103.696 184.197C103.393 184.928 102.88 185.552 102.222 185.992C101.565 186.431 100.791 186.666 100 186.666C98.9393 186.666 97.9219 186.245 97.1717 185.494C96.4216 184.744 96.0002 183.727 96.0002 182.666ZM69.3335 182.666C69.3335 181.875 69.5681 181.102 70.0076 180.444C70.4471 179.786 71.0719 179.273 71.8028 178.97C72.5337 178.668 73.3379 178.589 74.1139 178.743C74.8898 178.897 75.6025 179.278 76.1619 179.838C76.7213 180.397 77.1023 181.11 77.2566 181.886C77.411 182.662 77.3318 183.466 77.029 184.197C76.7263 184.928 76.2136 185.552 75.5558 185.992C74.898 186.431 74.1246 186.666 73.3335 186.666C72.2726 186.666 71.2552 186.245 70.5051 185.494C69.7549 184.744 69.3335 183.727 69.3335 182.666ZM42.6668 182.666C42.6668 181.875 42.9014 181.102 43.341 180.444C43.7805 179.786 44.4052 179.273 45.1361 178.97C45.867 178.668 46.6713 178.589 47.4472 178.743C48.2231 178.897 48.9358 179.278 49.4953 179.838C50.0547 180.397 50.4356 181.11 50.59 181.886C50.7443 182.662 50.6651 183.466 50.3623 184.197C50.0596 184.928 49.5469 185.552 48.8891 185.992C48.2313 186.431 47.458 186.666 46.6668 186.666C45.606 186.666 44.5885 186.245 43.8384 185.494C43.0883 184.744 42.6668 183.727 42.6668 182.666ZM162.667 169.333C162.667 168.542 162.901 167.768 163.341 167.11C163.78 166.453 164.405 165.94 165.136 165.637C165.867 165.334 166.671 165.255 167.447 165.41C168.223 165.564 168.936 165.945 169.495 166.504C170.055 167.064 170.436 167.776 170.59 168.552C170.744 169.328 170.665 170.133 170.362 170.863C170.06 171.594 169.547 172.219 168.889 172.659C168.231 173.098 167.458 173.333 166.667 173.333C165.606 173.333 164.589 172.911 163.838 172.161C163.088 171.411 162.667 170.394 162.667 169.333ZM136 169.333C136 168.542 136.235 167.768 136.674 167.11C137.114 166.453 137.739 165.94 138.469 165.637C139.2 165.334 140.005 165.255 140.781 165.41C141.556 165.564 142.269 165.945 142.829 166.504C143.388 167.064 143.769 167.776 143.923 168.552C144.078 169.328 143.998 170.133 143.696 170.863C143.393 171.594 142.88 172.219 142.222 172.659C141.565 173.098 140.791 173.333 140 173.333C138.939 173.333 137.922 172.911 137.172 172.161C136.422 171.411 136 170.394 136 169.333ZM109.333 169.333C109.333 168.542 109.568 167.768 110.008 167.11C110.447 166.453 111.072 165.94 111.803 165.637C112.534 165.334 113.338 165.255 114.114 165.41C114.89 165.564 115.603 165.945 116.162 166.504C116.721 167.064 117.102 167.776 117.257 168.552C117.411 169.328 117.332 170.133 117.029 170.863C116.726 171.594 116.214 172.219 115.556 172.659C114.898 173.098 114.125 173.333 113.333 173.333C112.273 173.333 111.255 172.911 110.505 172.161C109.755 171.411 109.333 170.394 109.333 169.333ZM82.6668 169.333C82.6668 168.542 82.9014 167.768 83.341 167.11C83.7805 166.453 84.4052 165.94 85.1361 165.637C85.867 165.334 86.6713 165.255 87.4472 165.41C88.2231 165.564 88.9358 165.945 89.4953 166.504C90.0547 167.064 90.4356 167.776 90.59 168.552C90.7443 169.328 90.6651 170.133 90.3623 170.863C90.0596 171.594 89.5469 172.219 88.8891 172.659C88.2313 173.098 87.458 173.333 86.6668 173.333C85.606 173.333 84.5886 172.911 83.8384 172.161C83.0883 171.411 82.6668 170.394 82.6668 169.333ZM56.0002 169.333C56.0002 168.542 56.2348 167.768 56.6743 167.11C57.1138 166.453 57.7385 165.94 58.4694 165.637C59.2003 165.334 60.0046 165.255 60.7805 165.41C61.5564 165.564 62.2692 165.945 62.8286 166.504C63.388 167.064 63.769 167.776 63.9233 168.552C64.0776 169.328 63.9984 170.133 63.6957 170.863C63.3929 171.594 62.8802 172.219 62.2224 172.659C61.5646 173.098 60.7913 173.333 60.0002 173.333C58.9393 173.333 57.9219 172.911 57.1717 172.161C56.4216 171.411 56.0002 170.394 56.0002 169.333ZM29.3335 169.333C29.3335 168.542 29.5681 167.768 30.0076 167.11C30.4471 166.453 31.0719 165.94 31.8028 165.637C32.5337 165.334 33.3379 165.255 34.1139 165.41C34.8898 165.564 35.6025 165.945 36.1619 166.504C36.7213 167.064 37.1023 167.776 37.2566 168.552C37.411 169.328 37.3318 170.133 37.029 170.863C36.7263 171.594 36.2136 172.219 35.5558 172.659C34.898 173.098 34.1246 173.333 33.3335 173.333C32.2726 173.333 31.2552 172.911 30.5051 172.161C29.7549 171.411 29.3335 170.394 29.3335 169.333V169.333ZM149.333 155.999C149.333 155.208 149.568 154.435 150.008 153.777C150.447 153.119 151.072 152.607 151.803 152.304C152.534 152.001 153.338 151.922 154.114 152.076C154.89 152.231 155.603 152.612 156.162 153.171C156.721 153.73 157.102 154.443 157.257 155.219C157.411 155.995 157.332 156.799 157.029 157.53C156.726 158.261 156.214 158.886 155.556 159.325C154.898 159.765 154.125 159.999 153.333 159.999C152.273 159.999 151.255 159.578 150.505 158.828C149.755 158.078 149.333 157.06 149.333 155.999ZM122.667 155.999C122.667 155.208 122.901 154.435 123.341 153.777C123.78 153.119 124.405 152.607 125.136 152.304C125.867 152.001 126.671 151.922 127.447 152.076C128.223 152.231 128.936 152.612 129.495 153.171C130.055 153.73 130.436 154.443 130.59 155.219C130.744 155.995 130.665 156.799 130.362 157.53C130.06 158.261 129.547 158.886 128.889 159.325C128.231 159.765 127.458 159.999 126.667 159.999C125.606 159.999 124.589 159.578 123.838 158.828C123.088 158.078 122.667 157.06 122.667 155.999ZM96.0002 155.999C96.0002 155.208 96.2348 154.435 96.6743 153.777C97.1138 153.119 97.7385 152.607 98.4694 152.304C99.2003 152.001 100.005 151.922 100.781 152.076C101.556 152.231 102.269 152.612 102.829 153.171C103.388 153.73 103.769 154.443 103.923 155.219C104.078 155.995 103.998 156.799 103.696 157.53C103.393 158.261 102.88 158.886 102.222 159.325C101.565 159.765 100.791 159.999 100 159.999C98.9393 159.999 97.9219 159.578 97.1717 158.828C96.4216 158.078 96.0002 157.06 96.0002 155.999ZM69.3335 155.999C69.3335 155.208 69.5681 154.435 70.0076 153.777C70.4471 153.119 71.0719 152.607 71.8028 152.304C72.5337 152.001 73.3379 151.922 74.1139 152.076C74.8898 152.231 75.6025 152.612 76.1619 153.171C76.7213 153.73 77.1023 154.443 77.2566 155.219C77.411 155.995 77.3318 156.799 77.029 157.53C76.7263 158.261 76.2136 158.886 75.5558 159.325C74.898 159.765 74.1246 159.999 73.3335 159.999C72.2726 159.999 71.2552 159.578 70.5051 158.828C69.7549 158.078 69.3335 157.06 69.3335 155.999ZM42.6668 155.999C42.6668 155.208 42.9014 154.435 43.341 153.777C43.7805 153.119 44.4052 152.607 45.1361 152.304C45.867 152.001 46.6713 151.922 47.4472 152.076C48.2231 152.231 48.9358 152.612 49.4953 153.171C50.0547 153.73 50.4356 154.443 50.59 155.219C50.7443 155.995 50.6651 156.799 50.3623 157.53C50.0596 158.261 49.5469 158.886 48.8891 159.325C48.2313 159.765 47.458 159.999 46.6668 159.999C45.606 159.999 44.5885 159.578 43.8384 158.828C43.0883 158.078 42.6668 157.06 42.6668 155.999ZM162.667 142.666C162.667 141.875 162.901 141.102 163.341 140.444C163.78 139.786 164.405 139.273 165.136 138.97C165.867 138.668 166.671 138.589 167.447 138.743C168.223 138.897 168.936 139.278 169.495 139.838C170.055 140.397 170.436 141.11 170.59 141.886C170.744 142.662 170.665 143.466 170.362 144.197C170.06 144.928 169.547 145.552 168.889 145.992C168.231 146.431 167.458 146.666 166.667 146.666C165.606 146.666 164.589 146.245 163.838 145.494C163.088 144.744 162.667 143.727 162.667 142.666ZM136 142.666C136 141.875 136.235 141.102 136.674 140.444C137.114 139.786 137.739 139.273 138.469 138.97C139.2 138.668 140.005 138.589 140.781 138.743C141.556 138.897 142.269 139.278 142.829 139.838C143.388 140.397 143.769 141.11 143.923 141.886C144.078 142.662 143.998 143.466 143.696 144.197C143.393 144.928 142.88 145.552 142.222 145.992C141.565 146.431 140.791 146.666 140 146.666C138.939 146.666 137.922 146.245 137.172 145.494C136.422 144.744 136 143.727 136 142.666ZM56.0002 142.666C56.0002 141.875 56.2348 141.102 56.6743 140.444C57.1138 139.786 57.7385 139.273 58.4694 138.97C59.2003 138.668 60.0046 138.589 60.7805 138.743C61.5564 138.897 62.2692 139.278 62.8286 139.838C63.388 140.397 63.769 141.11 63.9233 141.886C64.0776 142.662 63.9984 143.466 63.6957 144.197C63.3929 144.928 62.8802 145.552 62.2224 145.992C61.5646 146.431 60.7913 146.666 60.0002 146.666C58.9393 146.666 57.9219 146.245 57.1717 145.494C56.4216 144.744 56.0002 143.727 56.0002 142.666ZM29.3335 142.666C29.3335 141.875 29.5681 141.102 30.0076 140.444C30.4471 139.786 31.0719 139.273 31.8028 138.97C32.5337 138.668 33.3379 138.589 34.1139 138.743C34.8898 138.897 35.6025 139.278 36.1619 139.838C36.7213 140.397 37.1023 141.11 37.2566 141.886C37.411 142.662 37.3318 143.466 37.029 144.197C36.7263 144.928 36.2136 145.552 35.5558 145.992C34.898 146.431 34.1246 146.666 33.3335 146.666C32.2726 146.666 31.2552 146.245 30.5051 145.494C29.7549 144.744 29.3335 143.727 29.3335 142.666V142.666Z" fill="#FFA789"/>
</g>
</g>
<defs>
<linearGradient id="paint0_linear_897_3803" x1="100" y1="0" x2="100" y2="200" gradientUnits="userSpaceOnUse">
<stop stop-color="#1D0024"/>
<stop offset="1" stop-color="#100014"/>
</linearGradient>
<linearGradient id="paint1_linear_897_3803" x1="104.573" y1="52.666" x2="104.573" y2="158.758" gradientUnits="userSpaceOnUse">
<stop stop-color="#E6864E"/>
<stop offset="1" stop-color="#EB965E"/>
</linearGradient>
<linearGradient id="paint2_linear_897_3803" x1="100" y1="136" x2="100" y2="202.667" gradientUnits="userSpaceOnUse">
<stop stop-color="#FECBB5"/>
<stop offset="1" stop-color="#FED4C4"/>
</linearGradient>
<linearGradient id="paint3_linear_897_3803" x1="100" y1="136" x2="100" y2="202.667" gradientUnits="userSpaceOnUse">
<stop stop-color="#FECBB5"/>
<stop offset="1" stop-color="#FED4C4"/>
</linearGradient>
<clipPath id="clip0_897_3803">
<rect width="200" height="200" rx="100" fill="white"/>
</clipPath>
</defs>
</svg>
