<svg width="200" height="200" viewBox="0 0 200 200" fill="none" xmlns="http://www.w3.org/2000/svg">
<g clip-path="url(#clip0_897_3801)">
<rect width="200" height="200" rx="100" fill="url(#paint0_linear_897_3801)"/>
<path d="M161.333 162C166.222 171.333 168.667 205.333 168.667 205.333H31.3333C31.3333 205.333 33.7779 171.333 38.6666 162C45.9999 148 99.9999 130 99.9999 130C99.9999 130 154 148 161.333 162Z" fill="url(#paint1_linear_897_3801)"/>
<mask id="mask0_897_3801" style="mask-type:alpha" maskUnits="userSpaceOnUse" x="31" y="130" width="138" height="76">
<path d="M161.333 162C166.222 171.333 168.667 205.333 168.667 205.333H31.3333C31.3333 205.333 33.7779 171.333 38.6666 162C45.9999 148 99.9999 130 99.9999 130C99.9999 130 154 148 161.333 162Z" fill="url(#paint2_linear_897_3801)"/>
</mask>
<g mask="url(#mask0_897_3801)">
<path opacity="0.4" d="M162.667 199.333C162.667 198.542 162.901 197.769 163.341 197.111C163.78 196.453 164.405 195.941 165.136 195.638C165.867 195.335 166.671 195.256 167.447 195.41C168.223 195.565 168.936 195.945 169.495 196.505C170.054 197.064 170.435 197.777 170.59 198.553C170.744 199.329 170.665 200.133 170.362 200.864C170.059 201.595 169.547 202.22 168.889 202.659C168.231 203.099 167.458 203.333 166.667 203.333C165.606 203.333 164.588 202.912 163.838 202.162C163.088 201.412 162.667 200.394 162.667 199.333ZM136 199.333C136 198.542 136.235 197.769 136.674 197.111C137.114 196.453 137.738 195.941 138.469 195.638C139.2 195.335 140.004 195.256 140.78 195.41C141.556 195.565 142.269 195.945 142.828 196.505C143.388 197.064 143.769 197.777 143.923 198.553C144.077 199.329 143.998 200.133 143.695 200.864C143.393 201.595 142.88 202.22 142.222 202.659C141.564 203.099 140.791 203.333 140 203.333C138.939 203.333 137.922 202.912 137.171 202.162C136.421 201.412 136 200.394 136 199.333ZM109.333 199.333C109.333 198.542 109.568 197.769 110.007 197.111C110.447 196.453 111.072 195.941 111.803 195.638C112.533 195.335 113.338 195.256 114.114 195.41C114.89 195.565 115.602 195.945 116.162 196.505C116.721 197.064 117.102 197.777 117.256 198.553C117.411 199.329 117.332 200.133 117.029 200.864C116.726 201.595 116.213 202.22 115.556 202.659C114.898 203.099 114.124 203.333 113.333 203.333C112.272 203.333 111.255 202.912 110.505 202.162C109.755 201.412 109.333 200.394 109.333 199.333ZM82.6666 199.333C82.6666 198.542 82.9012 197.769 83.3407 197.111C83.7802 196.453 84.405 195.941 85.1359 195.638C85.8668 195.335 86.671 195.256 87.4469 195.41C88.2229 195.565 88.9356 195.945 89.495 196.505C90.0544 197.064 90.4354 197.777 90.5897 198.553C90.7441 199.329 90.6649 200.133 90.3621 200.864C90.0594 201.595 89.5467 202.22 88.8889 202.659C88.2311 203.099 87.4577 203.333 86.6666 203.333C85.6057 203.333 84.5883 202.912 83.8382 202.162C83.088 201.412 82.6666 200.394 82.6666 199.333ZM55.9999 199.333C55.9999 198.542 56.2345 197.769 56.674 197.111C57.1136 196.453 57.7383 195.941 58.4692 195.638C59.2001 195.335 60.0044 195.256 60.7803 195.41C61.5562 195.565 62.2689 195.945 62.8283 196.505C63.3878 197.064 63.7687 197.777 63.9231 198.553C64.0774 199.329 63.9982 200.133 63.6954 200.864C63.3927 201.595 62.88 202.22 62.2222 202.659C61.5644 203.099 60.791 203.333 59.9999 203.333C58.9391 203.333 57.9216 202.912 57.1715 202.162C56.4213 201.412 55.9999 200.394 55.9999 199.333ZM29.3333 199.333C29.3333 198.542 29.5678 197.769 30.0074 197.111C30.4469 196.453 31.0716 195.941 31.8025 195.638C32.5334 195.335 33.3377 195.256 34.1136 195.41C34.8895 195.565 35.6023 195.945 36.1617 196.505C36.7211 197.064 37.1021 197.777 37.2564 198.553C37.4107 199.329 37.3315 200.133 37.0288 200.864C36.726 201.595 36.2133 202.22 35.5555 202.659C34.8977 203.099 34.1244 203.333 33.3333 203.333C32.2724 203.333 31.255 202.912 30.5048 202.162C29.7547 201.412 29.3333 200.394 29.3333 199.333V199.333ZM149.333 186C149.333 185.209 149.568 184.436 150.007 183.778C150.447 183.12 151.072 182.607 151.803 182.304C152.533 182.002 153.338 181.923 154.114 182.077C154.89 182.231 155.602 182.612 156.162 183.172C156.721 183.731 157.102 184.444 157.256 185.22C157.411 185.996 157.332 186.8 157.029 187.531C156.726 188.262 156.213 188.886 155.556 189.326C154.898 189.765 154.124 190 153.333 190C152.272 190 151.255 189.579 150.505 188.828C149.755 188.078 149.333 187.061 149.333 186ZM122.667 186C122.667 185.209 122.901 184.436 123.341 183.778C123.78 183.12 124.405 182.607 125.136 182.304C125.867 182.002 126.671 181.923 127.447 182.077C128.223 182.231 128.936 182.612 129.495 183.172C130.054 183.731 130.435 184.444 130.59 185.22C130.744 185.996 130.665 186.8 130.362 187.531C130.059 188.262 129.547 188.886 128.889 189.326C128.231 189.765 127.458 190 126.667 190C125.606 190 124.588 189.579 123.838 188.828C123.088 188.078 122.667 187.061 122.667 186ZM95.9999 186C95.9999 185.209 96.2345 184.436 96.674 183.778C97.1136 183.12 97.7383 182.607 98.4692 182.304C99.2001 182.002 100.004 181.923 100.78 182.077C101.556 182.231 102.269 182.612 102.828 183.172C103.388 183.731 103.769 184.444 103.923 185.22C104.077 185.996 103.998 186.8 103.695 187.531C103.393 188.262 102.88 188.886 102.222 189.326C101.564 189.765 100.791 190 99.9999 190C98.9391 190 97.9216 189.579 97.1715 188.828C96.4213 188.078 95.9999 187.061 95.9999 186ZM69.3333 186C69.3333 185.209 69.5678 184.436 70.0074 183.778C70.4469 183.12 71.0716 182.607 71.8025 182.304C72.5334 182.002 73.3377 181.923 74.1136 182.077C74.8895 182.231 75.6023 182.612 76.1617 183.172C76.7211 183.731 77.1021 184.444 77.2564 185.22C77.4107 185.996 77.3315 186.8 77.0288 187.531C76.726 188.262 76.2133 188.886 75.5555 189.326C74.8977 189.765 74.1244 190 73.3333 190C72.2724 190 71.255 189.579 70.5048 188.828C69.7547 188.078 69.3333 187.061 69.3333 186ZM42.6666 186C42.6666 185.209 42.9012 184.436 43.3407 183.778C43.7802 183.12 44.4049 182.607 45.1359 182.304C45.8668 182.002 46.671 181.923 47.4469 182.077C48.2229 182.231 48.9356 182.612 49.495 183.172C50.0544 183.731 50.4354 184.444 50.5897 185.22C50.7441 185.996 50.6649 186.8 50.3621 187.531C50.0594 188.262 49.5467 188.886 48.8889 189.326C48.2311 189.765 47.4577 190 46.6666 190C45.6057 190 44.5883 189.579 43.8382 188.828C43.088 188.078 42.6666 187.061 42.6666 186ZM162.667 172.667C162.667 171.876 162.901 171.102 163.341 170.444C163.78 169.787 164.405 169.274 165.136 168.971C165.867 168.668 166.671 168.589 167.447 168.744C168.223 168.898 168.936 169.279 169.495 169.838C170.054 170.398 170.435 171.11 170.59 171.886C170.744 172.662 170.665 173.466 170.362 174.197C170.059 174.928 169.547 175.553 168.889 175.993C168.231 176.432 167.458 176.667 166.667 176.667C165.606 176.667 164.588 176.245 163.838 175.495C163.088 174.745 162.667 173.728 162.667 172.667ZM136 172.667C136 171.876 136.235 171.102 136.674 170.444C137.114 169.787 137.738 169.274 138.469 168.971C139.2 168.668 140.004 168.589 140.78 168.744C141.556 168.898 142.269 169.279 142.828 169.838C143.388 170.398 143.769 171.11 143.923 171.886C144.077 172.662 143.998 173.466 143.695 174.197C143.393 174.928 142.88 175.553 142.222 175.993C141.564 176.432 140.791 176.667 140 176.667C138.939 176.667 137.922 176.245 137.171 175.495C136.421 174.745 136 173.728 136 172.667ZM109.333 172.667C109.333 171.876 109.568 171.102 110.007 170.444C110.447 169.787 111.072 169.274 111.803 168.971C112.533 168.668 113.338 168.589 114.114 168.744C114.89 168.898 115.602 169.279 116.162 169.838C116.721 170.398 117.102 171.11 117.256 171.886C117.411 172.662 117.332 173.466 117.029 174.197C116.726 174.928 116.213 175.553 115.556 175.993C114.898 176.432 114.124 176.667 113.333 176.667C112.272 176.667 111.255 176.245 110.505 175.495C109.755 174.745 109.333 173.728 109.333 172.667ZM82.6666 172.667C82.6666 171.876 82.9012 171.102 83.3407 170.444C83.7802 169.787 84.405 169.274 85.1359 168.971C85.8668 168.668 86.671 168.589 87.4469 168.744C88.2229 168.898 88.9356 169.279 89.495 169.838C90.0544 170.398 90.4354 171.11 90.5897 171.886C90.7441 172.662 90.6649 173.466 90.3621 174.197C90.0594 174.928 89.5467 175.553 88.8889 175.993C88.2311 176.432 87.4577 176.667 86.6666 176.667C85.6057 176.667 84.5883 176.245 83.8382 175.495C83.088 174.745 82.6666 173.728 82.6666 172.667ZM55.9999 172.667C55.9999 171.876 56.2345 171.102 56.674 170.444C57.1136 169.787 57.7383 169.274 58.4692 168.971C59.2001 168.668 60.0044 168.589 60.7803 168.744C61.5562 168.898 62.2689 169.279 62.8283 169.838C63.3878 170.398 63.7687 171.11 63.9231 171.886C64.0774 172.662 63.9982 173.466 63.6954 174.197C63.3927 174.928 62.88 175.553 62.2222 175.993C61.5644 176.432 60.791 176.667 59.9999 176.667C58.9391 176.667 57.9216 176.245 57.1715 175.495C56.4213 174.745 55.9999 173.728 55.9999 172.667ZM29.3333 172.667C29.3333 171.876 29.5678 171.102 30.0074 170.444C30.4469 169.787 31.0716 169.274 31.8025 168.971C32.5334 168.668 33.3377 168.589 34.1136 168.744C34.8895 168.898 35.6023 169.279 36.1617 169.838C36.7211 170.398 37.1021 171.11 37.2564 171.886C37.4107 172.662 37.3315 173.466 37.0288 174.197C36.726 174.928 36.2133 175.553 35.5555 175.993C34.8977 176.432 34.1244 176.667 33.3333 176.667C32.2724 176.667 31.255 176.245 30.5048 175.495C29.7547 174.745 29.3333 173.728 29.3333 172.667V172.667ZM149.333 159.333C149.333 158.542 149.568 157.769 150.007 157.111C150.447 156.453 151.072 155.941 151.803 155.638C152.533 155.335 153.338 155.256 154.114 155.41C154.89 155.565 155.602 155.945 156.162 156.505C156.721 157.064 157.102 157.777 157.256 158.553C157.411 159.329 157.332 160.133 157.029 160.864C156.726 161.595 156.213 162.22 155.556 162.659C154.898 163.099 154.124 163.333 153.333 163.333C152.272 163.333 151.255 162.912 150.505 162.162C149.755 161.412 149.333 160.394 149.333 159.333ZM122.667 159.333C122.667 158.542 122.901 157.769 123.341 157.111C123.78 156.453 124.405 155.941 125.136 155.638C125.867 155.335 126.671 155.256 127.447 155.41C128.223 155.565 128.936 155.945 129.495 156.505C130.054 157.064 130.435 157.777 130.59 158.553C130.744 159.329 130.665 160.133 130.362 160.864C130.059 161.595 129.547 162.22 128.889 162.659C128.231 163.099 127.458 163.333 126.667 163.333C125.606 163.333 124.588 162.912 123.838 162.162C123.088 161.412 122.667 160.394 122.667 159.333ZM95.9999 159.333C95.9999 158.542 96.2345 157.769 96.674 157.111C97.1136 156.453 97.7383 155.941 98.4692 155.638C99.2001 155.335 100.004 155.256 100.78 155.41C101.556 155.565 102.269 155.945 102.828 156.505C103.388 157.064 103.769 157.777 103.923 158.553C104.077 159.329 103.998 160.133 103.695 160.864C103.393 161.595 102.88 162.22 102.222 162.659C101.564 163.099 100.791 163.333 99.9999 163.333C98.9391 163.333 97.9216 162.912 97.1715 162.162C96.4213 161.412 95.9999 160.394 95.9999 159.333ZM69.3333 159.333C69.3333 158.542 69.5678 157.769 70.0074 157.111C70.4469 156.453 71.0716 155.941 71.8025 155.638C72.5334 155.335 73.3377 155.256 74.1136 155.41C74.8895 155.565 75.6023 155.945 76.1617 156.505C76.7211 157.064 77.1021 157.777 77.2564 158.553C77.4107 159.329 77.3315 160.133 77.0288 160.864C76.726 161.595 76.2133 162.22 75.5555 162.659C74.8977 163.099 74.1244 163.333 73.3333 163.333C72.2724 163.333 71.255 162.912 70.5048 162.162C69.7547 161.412 69.3333 160.394 69.3333 159.333ZM42.6666 159.333C42.6666 158.542 42.9012 157.769 43.3407 157.111C43.7802 156.453 44.4049 155.941 45.1359 155.638C45.8668 155.335 46.671 155.256 47.4469 155.41C48.2229 155.565 48.9356 155.945 49.495 156.505C50.0544 157.064 50.4354 157.777 50.5897 158.553C50.7441 159.329 50.6649 160.133 50.3621 160.864C50.0594 161.595 49.5467 162.22 48.8889 162.659C48.2311 163.099 47.4577 163.333 46.6666 163.333C45.6057 163.333 44.5883 162.912 43.8382 162.162C43.088 161.412 42.6666 160.394 42.6666 159.333ZM162.667 146C162.667 145.209 162.901 144.436 163.341 143.778C163.78 143.12 164.405 142.607 165.136 142.304C165.867 142.002 166.671 141.923 167.447 142.077C168.223 142.231 168.936 142.612 169.495 143.172C170.054 143.731 170.435 144.444 170.59 145.22C170.744 145.996 170.665 146.8 170.362 147.531C170.059 148.262 169.547 148.886 168.889 149.326C168.231 149.765 167.458 150 166.667 150C165.606 150 164.588 149.579 163.838 148.828C163.088 148.078 162.667 147.061 162.667 146ZM136 146C136 145.209 136.235 144.436 136.674 143.778C137.114 143.12 137.738 142.607 138.469 142.304C139.2 142.002 140.004 141.923 140.78 142.077C141.556 142.231 142.269 142.612 142.828 143.172C143.388 143.731 143.769 144.444 143.923 145.22C144.077 145.996 143.998 146.8 143.695 147.531C143.393 148.262 142.88 148.886 142.222 149.326C141.564 149.765 140.791 150 140 150C138.939 150 137.922 149.579 137.171 148.828C136.421 148.078 136 147.061 136 146ZM55.9999 146C55.9999 145.209 56.2345 144.436 56.674 143.778C57.1136 143.12 57.7383 142.607 58.4692 142.304C59.2001 142.002 60.0044 141.923 60.7803 142.077C61.5562 142.231 62.2689 142.612 62.8283 143.172C63.3878 143.731 63.7687 144.444 63.9231 145.22C64.0774 145.996 63.9982 146.8 63.6954 147.531C63.3927 148.262 62.88 148.886 62.2222 149.326C61.5644 149.765 60.791 150 59.9999 150C58.9391 150 57.9216 149.579 57.1715 148.828C56.4213 148.078 55.9999 147.061 55.9999 146ZM29.3333 146C29.3333 145.209 29.5678 144.436 30.0074 143.778C30.4469 143.12 31.0716 142.607 31.8025 142.304C32.5334 142.002 33.3377 141.923 34.1136 142.077C34.8895 142.231 35.6023 142.612 36.1617 143.172C36.7211 143.731 37.1021 144.444 37.2564 145.22C37.4107 145.996 37.3315 146.8 37.0288 147.531C36.726 148.262 36.2133 148.886 35.5555 149.326C34.8977 149.765 34.1244 150 33.3333 150C32.2724 150 31.255 149.579 30.5048 148.828C29.7547 148.078 29.3333 147.061 29.3333 146V146Z" fill="#13001E"/>
</g>
<path d="M107.243 35.1339C104.576 23.4673 117.221 14.5146 130.243 20.6606C160.909 35.1339 142.667 55.3339 131.333 54.0006C120 52.6673 109.909 46.8006 107.243 35.1339Z" fill="url(#paint3_linear_897_3801)"/>
<g style="mix-blend-mode:multiply" opacity="0.6">
<path d="M118.333 37C118.333 37 141 51.6667 146.667 43.6667C147.251 47.0073 144.563 56.4433 140.333 56.3333C127.682 56.004 118.333 37 118.333 37Z" fill="#E0713F"/>
</g>
<path d="M114.667 108.668C100.345 115.549 98.2553 115.18 66.6666 89.3347C19 50.3347 64 14.6681 112.333 33.6681C164.667 56.6681 147.134 93.0727 114.667 108.668Z" fill="url(#paint4_linear_897_3801)"/>
<path d="M116.001 136C111.112 144 88.8892 144 84.0006 136V122.667C84.0006 122.667 81.8252 122.733 80.3339 122.667C64.7399 122 59.5292 96.9153 61.9766 71.8253C63.7686 53.4507 79.3339 78.6667 104.667 61C103.667 80.3333 112.001 78.3333 115.667 76C132.334 68.3333 132.473 99.7613 116.001 97.3333V136Z" fill="url(#paint5_linear_897_3801)"/>
<path d="M84.0004 122.664C92.9971 121.996 106.413 112.598 106.413 112.598C106.413 112.598 99.995 126.328 84.0012 128.662L84.0004 122.664Z" fill="#FFBB94"/>
<path d="M116 134.307V130C117.223 130 120.723 132.888 122.524 135.333C129.641 145 121.747 153.667 115.308 153.667C107.184 153.667 101.8 146.879 100 143.613C98.2 146.88 92.816 153.667 84.692 153.667C78.2533 153.667 70.3587 145 77.476 135.333C79.2767 132.888 82.7773 130 84 130V134.307C84 139.405 95.16 141.765 99.978 141.983C104.539 141.765 116 139.405 116 134.307Z" fill="#FFF9F5"/>
<path d="M108.393 47.6192C97.7267 74.2859 103.727 87.2859 112.06 102.953C120.393 118.619 110.06 133.286 110.06 133.286C110.06 133.286 122.06 125.619 122.06 108.619C122.06 91.6192 110.06 80.9525 120.06 66.9525C130.06 52.9525 119.06 20.9525 108.393 47.6192Z" fill="url(#paint6_linear_897_3801)"/>
</g>
<defs>
<linearGradient id="paint0_linear_897_3801" x1="100" y1="0" x2="100" y2="200" gradientUnits="userSpaceOnUse">
<stop stop-color="#1D0024"/>
<stop offset="1" stop-color="#100014"/>
</linearGradient>
<linearGradient id="paint1_linear_897_3801" x1="99.9999" y1="130" x2="99.9999" y2="205.333" gradientUnits="userSpaceOnUse">
<stop stop-color="#806A6A"/>
<stop offset="1" stop-color="#665654"/>
</linearGradient>
<linearGradient id="paint2_linear_897_3801" x1="99.9999" y1="130" x2="99.9999" y2="205.333" gradientUnits="userSpaceOnUse">
<stop stop-color="#806A6A"/>
<stop offset="1" stop-color="#665654"/>
</linearGradient>
<linearGradient id="paint3_linear_897_3801" x1="127.014" y1="54.0633" x2="127.014" y2="18.6641" gradientUnits="userSpaceOnUse">
<stop stop-color="#E6864E"/>
<stop offset="1" stop-color="#E67240"/>
</linearGradient>
<linearGradient id="paint4_linear_897_3801" x1="95.9627" y1="112.457" x2="95.9627" y2="28.4062" gradientUnits="userSpaceOnUse">
<stop stop-color="#E6864E"/>
<stop offset="1" stop-color="#E67240"/>
</linearGradient>
<linearGradient id="paint5_linear_897_3801" x1="94.8312" y1="61" x2="94.8312" y2="142" gradientUnits="userSpaceOnUse">
<stop stop-color="#FFD4B3"/>
<stop offset="1" stop-color="#FFDCC2"/>
</linearGradient>
<linearGradient id="paint6_linear_897_3801" x1="113.328" y1="133.286" x2="113.328" y2="37.334" gradientUnits="userSpaceOnUse">
<stop stop-color="#E6864E"/>
<stop offset="1" stop-color="#E57442"/>
</linearGradient>
<clipPath id="clip0_897_3801">
<rect width="200" height="200" rx="100" fill="white"/>
</clipPath>
</defs>
</svg>
