<svg width="24" height="25" viewBox="0 0 24 25" fill="none" xmlns="http://www.w3.org/2000/svg">
<path d="M20.8401 5.51808C20.3294 5.00708 19.7229 4.60172 19.0555 4.32516C18.388 4.0486 17.6726 3.90625 16.9501 3.90625C16.2276 3.90625 15.5122 4.0486 14.8448 4.32516C14.1773 4.60172 13.5709 5.00708 13.0601 5.51808L12.0001 6.57808L10.9401 5.51808C9.90843 4.48638 8.50915 3.90678 7.05012 3.90678C5.59109 3.90678 4.19181 4.48638 3.16012 5.51808C2.12843 6.54977 1.54883 7.94904 1.54883 9.40808C1.54883 10.8671 2.12843 12.2664 3.16012 13.2981L4.22012 14.3581L12.0001 22.1381L19.7801 14.3581L20.8401 13.2981C21.3511 12.7873 21.7565 12.1809 22.033 11.5134C22.3096 10.846 22.4519 10.1306 22.4519 9.40808C22.4519 8.68559 22.3096 7.97018 22.033 7.30272C21.7565 6.63526 21.3511 6.02883 20.8401 5.51808Z" fill="#EFD2CA" stroke="#EFD2CA" stroke-width="2" stroke-linecap="round" stroke-linejoin="round"/>
</svg>
