<svg width="22" height="22" viewBox="0 0 22 22" fill="none" xmlns="http://www.w3.org/2000/svg">
<path d="M10.751 21.7808C9.29883 21.7808 7.92633 21.5019 6.63353 20.9441C5.34073 20.3862 4.21174 19.6247 3.24657 18.6595C2.28139 17.6944 1.51988 16.5654 0.962024 15.2726C0.404171 13.9798 0.125244 12.6073 0.125244 11.1551C0.125244 9.68517 0.404171 8.30825 0.962024 7.0243C1.51988 5.74035 2.28139 4.61579 3.24657 3.65062C4.21174 2.68544 5.34073 1.92393 6.63353 1.36608C7.92633 0.808223 9.29883 0.529297 10.751 0.529297C12.2209 0.529297 13.5978 0.808223 14.8818 1.36608C16.1657 1.92393 17.2903 2.68544 18.2555 3.65062C19.2206 4.61579 19.9822 5.74035 20.54 7.0243C21.0979 8.30825 21.3768 9.68517 21.3768 11.1551C21.3768 12.6073 21.0979 13.9798 20.54 15.2726C19.9822 16.5654 19.2206 17.6944 18.2555 18.6595C17.2903 19.6247 16.1657 20.3862 14.8818 20.9441C13.5978 21.5019 12.2209 21.7808 10.751 21.7808ZM10.751 19.6026C11.2115 18.965 11.6099 18.3009 11.9464 17.6102C12.2829 16.9196 12.5574 16.1846 12.7699 15.4054H8.73212C8.94464 16.1846 9.21914 16.9196 9.55562 17.6102C9.8921 18.3009 10.2906 18.965 10.751 19.6026ZM7.98832 19.1775C7.66954 18.5931 7.39062 17.9866 7.15154 17.3579C6.91246 16.7292 6.71322 16.0783 6.55384 15.4054H3.41923C3.93281 16.2909 4.57479 17.0612 5.34516 17.7165C6.11552 18.3717 6.99658 18.8588 7.98832 19.1775ZM13.5137 19.1775C14.5055 18.8588 15.3865 18.3717 16.1569 17.7165C16.9272 17.0612 17.5692 16.2909 18.0828 15.4054H14.9482C14.7888 16.0783 14.5896 16.7292 14.3505 17.3579C14.1114 17.9866 13.8325 18.5931 13.5137 19.1775ZM2.51604 13.2802H6.12881C6.07568 12.926 6.03583 12.5763 6.00927 12.2309C5.9827 11.8856 5.96942 11.527 5.96942 11.1551C5.96942 10.7832 5.9827 10.4246 6.00927 10.0792C6.03583 9.73387 6.07568 9.38411 6.12881 9.02992H2.51604C2.4275 9.38411 2.36108 9.73387 2.31681 10.0792C2.27254 10.4246 2.2504 10.7832 2.2504 11.1551C2.2504 11.527 2.27254 11.8856 2.31681 12.2309C2.36108 12.5763 2.4275 12.926 2.51604 13.2802ZM8.25396 13.2802H13.2481C13.3012 12.926 13.3411 12.5763 13.3676 12.2309C13.3942 11.8856 13.4075 11.527 13.4075 11.1551C13.4075 10.7832 13.3942 10.4246 13.3676 10.0792C13.3411 9.73387 13.3012 9.38411 13.2481 9.02992H8.25396C8.20083 9.38411 8.16098 9.73387 8.13442 10.0792C8.10786 10.4246 8.09457 10.7832 8.09457 11.1551C8.09457 11.527 8.10786 11.8856 8.13442 12.2309C8.16098 12.5763 8.20083 12.926 8.25396 13.2802ZM15.3732 13.2802H18.986C19.0745 12.926 19.141 12.5763 19.1852 12.2309C19.2295 11.8856 19.2516 11.527 19.2516 11.1551C19.2516 10.7832 19.2295 10.4246 19.1852 10.0792C19.141 9.73387 19.0745 9.38411 18.986 9.02992H15.3732C15.4264 9.38411 15.4662 9.73387 15.4928 10.0792C15.5193 10.4246 15.5326 10.7832 15.5326 11.1551C15.5326 11.527 15.5193 11.8856 15.4928 12.2309C15.4662 12.5763 15.4264 12.926 15.3732 13.2802ZM14.9482 6.90476H18.0828C17.5692 6.01928 16.9272 5.24891 16.1569 4.59366C15.3865 3.9384 14.5055 3.45139 13.5137 3.13261C13.8325 3.71703 14.1114 4.32358 14.3505 4.95228C14.5896 5.58097 14.7888 6.2318 14.9482 6.90476ZM8.73212 6.90476H12.7699C12.5574 6.12554 12.2829 5.39059 11.9464 4.69991C11.6099 4.00924 11.2115 3.34513 10.751 2.70758C10.2906 3.34513 9.8921 4.00924 9.55562 4.69991C9.21914 5.39059 8.94464 6.12554 8.73212 6.90476ZM3.41923 6.90476H6.55384C6.71322 6.2318 6.91246 5.58097 7.15154 4.95228C7.39062 4.32358 7.66954 3.71703 7.98832 3.13261C6.99658 3.45139 6.11552 3.9384 5.34516 4.59366C4.57479 5.24891 3.93281 6.01928 3.41923 6.90476Z" fill="#333333"/>
</svg>
