<svg width="177" height="194" viewBox="0 0 177 194" fill="none" xmlns="http://www.w3.org/2000/svg">
<g clip-path="url(#clip0_337_838)">
<path d="M12.7348 49.8043C12.6143 55.6207 13.0901 61.4847 14.1399 67.1838C15.3928 73.977 18.1301 81.5916 24.5276 85.1341C32.1432 89.349 42.4008 88.8479 50.5429 86.6152C57.8158 84.6204 64.9588 80.3865 66.532 72.4928C67.861 65.8169 68.0481 58.8207 68.0196 52.0339C67.9942 46.0367 68.1655 39.1039 66.2021 33.3699C63.6329 25.8695 55.9667 24.0079 48.792 24.1062C40.2535 24.2235 31.5849 26.2088 23.4175 28.5779C19.7572 29.6403 16.1255 30.8328 12.5826 32.2504C9.69305 33.408 6.57199 34.5497 3.99964 36.3606C0.580428 38.7677 -1.35755 43.4741 1.12281 47.3274C3.31136 50.7241 8.42433 52.7855 12.0909 50.2039C12.3003 50.0581 12.5191 49.9407 12.7348 49.8107V49.8043ZM46.0008 71.2337C43.9265 71.5255 38.9118 71.7158 32.2796 71.5319C32.2225 71.5319 32.1654 71.5318 32.1114 71.5192C28.1911 70.4662 23.6522 45.4309 29.5359 43.5059C33.1359 42.3293 40.041 40.8736 41.408 40.7721C41.6491 40.7531 41.8458 40.7435 41.979 40.734C45.4648 40.3313 48.6334 40.2647 51.3866 40.3693C51.3866 40.3693 51.3897 40.3693 51.3929 40.3693C51.8465 40.4105 51.7228 42.6337 51.7228 43.8928C51.7006 49.5348 52.0749 56.0045 51.7323 61.7607C51.6498 63.1307 51.5483 64.4976 51.4119 65.8613C51.3897 66.0738 51.3612 66.4924 51.2787 67.0474C51.2375 67.3265 51.2026 67.5295 51.1994 67.5517C51.0979 68.1067 50.9108 68.6078 50.7871 68.8552C50.5429 69.3499 50.0925 69.7146 49.2202 70.1491C47.463 71.0244 46.0072 71.2274 46.0072 71.2274L46.0008 71.2337Z" fill="#B79D96"/>
<path d="M100.309 92.387C101.996 91.5593 104.34 90.462 107.185 89.3012C111.22 87.6552 115.774 86.0886 121.541 84.5504C124.922 83.6497 127.907 83.0535 131.862 82.2384C136.103 81.3663 138.554 76.3554 137.46 72.3784C136.236 67.9226 131.868 65.969 127.599 66.7809C126.257 67.0346 124.919 67.2978 123.58 67.561C123.216 67.634 122.876 67.7545 122.54 67.8877C116.203 69.3307 109.98 71.0845 103.909 73.4821C105.853 61.9698 107.261 50.3243 107.429 38.7041C107.597 26.9413 106.963 11.3314 96.033 4.13862C87.4438 -1.51288 79.4667 12.1465 87.8022 17.8646C87.7673 17.8392 87.7356 17.817 87.6975 17.7948C87.8783 17.9375 88.0306 18.1183 88.186 18.2927C88.3699 18.6511 88.63 19.0222 88.833 19.352C88.9916 19.6121 89.109 19.9038 89.2485 20.1734C89.2612 20.2178 89.2612 20.2273 89.2771 20.2781C89.626 21.3849 89.9812 22.4727 90.2477 23.6081C90.4919 24.6388 90.6759 25.6758 90.8567 26.7193C90.8789 26.8461 90.8884 26.8905 90.9042 26.9793C90.9137 27.0776 90.9169 27.1347 90.9328 27.2806C90.9803 27.75 91.0311 28.2193 91.0755 28.6887C91.3419 31.6128 91.4244 34.5495 91.4117 37.4831C91.3515 50.5589 89.6767 62.3091 87.4565 74.7792C87.0568 77.0278 86.6254 79.27 86.1909 81.5122C83.3997 82.8727 80.6117 84.2396 77.8141 85.5875C63.855 92.3046 53.0803 98.4572 49.9149 100.287C49.807 100.347 49.3978 100.573 49.2456 100.674C17.3752 122.011 -3.1528 143.317 12.9156 163.212C34.0114 189.328 69.8719 171.765 100.309 92.3902V92.387ZM29.4376 152.045C15.1676 137.082 80.5007 100.049 81.798 101.226C81.8424 101.267 81.8202 101.362 81.798 101.432C80.3548 106.04 46.5908 170.033 29.4376 152.045Z" fill="#B79D96"/>
<path d="M87.6975 17.7979C87.6753 17.782 87.6626 17.7535 87.6404 17.7376C87.0283 17.3348 87.3296 17.5441 87.6975 17.7979Z" fill="#B79D96"/>
<path d="M140.235 14.9345C141.945 19.1208 141.403 26.3517 141.406 30.6648C141.412 37.3914 141.644 44.0102 142.015 50.7242C142.9 66.7114 142.598 83.3741 147.635 98.7556C150.833 108.514 166.317 104.337 163.095 94.4932C157.849 78.4742 158.775 61.0123 157.623 44.3876C157.144 37.458 157.623 30.4967 157.306 23.5608C157.125 19.587 156.773 15.5149 155.838 11.6394C154.718 7.00273 152.618 4.01523 148.66 1.37025C140.185 -4.29076 132.296 9.07685 140.232 14.9345H140.235Z" fill="#B79D96"/>
<path d="M107.75 134.37C109.006 132.899 110.176 131.373 111.718 130.181L109.951 131.545C111.531 130.34 113.329 129.458 115.15 128.687L113.066 129.566C115.549 128.526 118.125 127.657 120.7 126.87C122.819 126.223 124.963 125.655 127.133 125.215C128.195 124.999 129.264 124.815 130.339 124.672L128.021 124.983C130.682 124.628 133.388 124.507 136.055 124.859L133.736 124.549C135.36 124.767 136.959 125.17 138.472 125.804L136.388 124.926C137.663 125.468 138.856 126.172 139.95 127.016L138.183 125.652C139.43 126.62 140.524 127.752 141.571 128.931C141.958 129.369 142.348 129.804 142.703 130.267L141.339 128.5C142.009 129.382 142.564 130.336 143.001 131.351L142.123 129.268C142.595 130.39 142.909 131.567 143.077 132.775L142.767 130.457C142.932 131.729 142.928 133.013 142.76 134.288L143.071 131.97C142.89 133.286 142.541 134.567 142.031 135.791L142.909 133.708C142.411 134.881 141.771 135.988 140.997 137.003L142.361 135.236C141.603 136.213 140.73 137.092 139.757 137.853L141.523 136.489C140.404 137.352 139.179 138.091 137.987 138.852C136.794 139.613 135.614 140.345 134.431 141.094C132.065 142.591 129.711 144.116 127.482 145.813C124.754 147.887 122.032 149.996 119.841 152.657C118.588 154.176 117.332 155.759 116.361 157.484C115.391 159.209 114.569 161.128 113.989 163.05C113.798 163.684 113.646 164.331 113.532 164.984C113.288 166.396 113.078 167.829 112.999 169.259C112.879 171.473 113.208 173.719 113.58 175.888C113.868 177.575 114.35 179.224 114.959 180.823C115.489 182.218 116.035 183.623 116.713 184.955C116.961 185.44 117.243 185.91 117.567 186.35C118.277 187.321 118.994 188.352 119.866 189.198C120.738 190.045 121.696 190.752 122.679 191.412C123.054 191.663 123.45 191.875 123.859 192.059C124.887 192.522 126.035 193.064 127.164 193.362C128.354 193.673 129.613 193.781 130.822 193.924C131.316 193.981 131.811 194.006 132.309 194.003C134.133 193.994 135.976 193.702 137.761 193.378C140.163 192.944 142.497 192.167 144.778 191.314C148.006 190.102 151.169 188.716 154.341 187.362C154.946 187.105 155.552 186.845 156.158 186.588L154.074 187.467C157.306 186.103 160.576 184.746 163.989 183.902C164.827 183.696 165.677 183.525 166.53 183.404L164.211 183.715C165.42 183.553 166.644 183.499 167.852 183.658L165.534 183.347C165.673 183.366 165.813 183.388 165.953 183.414C167.113 183.778 168.271 183.829 169.432 183.569C170.593 183.515 171.675 183.173 172.674 182.535C173.689 181.986 174.507 181.238 175.122 180.29C175.893 179.446 176.413 178.46 176.683 177.324L176.994 175.006C176.987 173.433 176.591 171.965 175.804 170.604L174.44 168.838C173.352 167.756 172.068 167.008 170.593 166.595C168.674 166.256 166.771 166.006 164.83 166.202C162.759 166.412 160.694 166.713 158.683 167.258C155.711 168.061 152.847 169.218 150.011 170.408C147.632 171.403 145.263 172.425 142.884 173.43L144.968 172.551C141.641 173.956 138.266 175.352 134.748 176.214C133.882 176.427 133.004 176.601 132.119 176.722L134.437 176.411C133.175 176.579 131.897 176.63 130.634 176.465L132.953 176.776C132.166 176.668 131.396 176.471 130.663 176.164L132.747 177.042C132.157 176.788 131.602 176.465 131.091 176.075L132.858 177.439C132.322 177.02 131.846 176.538 131.427 176.002L132.791 177.768C132.201 177.004 131.745 176.157 131.37 175.273L132.249 177.356C131.323 175.158 130.612 172.865 130.285 170.496L130.596 172.815C130.381 171.188 130.355 169.545 130.571 167.918L130.26 170.236C130.46 168.784 130.847 167.369 131.415 166.018L130.536 168.102C131.186 166.573 132.052 165.149 133.061 163.833L131.697 165.6C133.426 163.367 135.535 161.464 137.761 159.742L135.995 161.106C138.58 159.117 141.333 157.36 144.089 155.625C145.444 154.772 146.801 153.926 148.143 153.053C148.834 152.603 149.538 152.159 150.198 151.661C151.514 150.662 152.85 149.695 153.96 148.468C154.75 147.595 155.454 146.631 156.155 145.696C156.424 145.334 156.678 144.966 156.916 144.583C157.769 143.2 158.375 141.658 158.971 140.158C159.304 139.321 159.561 138.455 159.736 137.57C159.971 136.394 160.11 135.189 160.243 133.999C160.294 133.565 160.323 133.127 160.332 132.686C160.37 131.053 160.104 129.407 159.847 127.802C159.707 126.921 159.482 126.052 159.171 125.211C158.762 124.108 158.305 123.014 157.791 121.957C157.598 121.555 157.382 121.165 157.148 120.784C156.345 119.49 155.378 118.288 154.375 117.143C153.373 115.998 152.399 114.917 151.27 113.946C150.141 112.976 148.853 111.952 147.537 111.111C146.132 110.214 144.594 109.614 143.058 108.977C142.091 108.577 141.095 108.263 140.074 108.038C139.129 107.829 138.174 107.711 137.216 107.585C136.207 107.448 135.205 107.312 134.187 107.258C132.725 107.179 131.256 107.226 129.797 107.356C127.298 107.578 124.792 107.937 122.331 108.444C117.738 109.389 113.183 110.826 108.841 112.589C106.303 113.62 103.652 114.657 101.419 116.29C99.6806 117.562 98.1169 118.83 96.734 120.467C96.29 120.993 95.8523 121.529 95.405 122.053C94.555 122.842 93.9523 123.778 93.6003 124.859C93.0547 125.9 92.8041 127.019 92.8485 128.221C92.8041 129.423 93.0547 130.543 93.6003 131.583C93.9523 132.664 94.5518 133.6 95.405 134.39L97.1717 135.753C98.5324 136.543 100.001 136.939 101.574 136.943L103.893 136.632C105.371 136.216 106.652 135.471 107.74 134.39L107.75 134.37Z" fill="#B79D96"/>
</g>
<defs>
<clipPath id="clip0_337_838">
<rect width="177" height="194" fill="white"/>
</clipPath>
</defs>
</svg>
