<svg width="507" height="532" viewBox="0 0 507 532" fill="none" xmlns="http://www.w3.org/2000/svg">
<path d="M74.1422 83.12C59.0094 75.7775 43.6975 83.5678 39.0412 99.2378C36.9818 106.133 36.4445 113.654 35.9968 120.818C34.6536 140.517 35.9968 160.575 39.5785 179.916C43.1602 199.258 50.6819 220.121 68.5905 230.06C89.9018 241.791 118.466 240.447 141.21 234.179C161.536 228.628 181.504 216.808 185.892 194.691C189.563 176.066 190.101 156.456 190.011 137.562C190.011 120.818 190.459 101.476 184.907 85.4482C177.744 64.4951 156.343 59.3016 136.285 59.5702C112.467 59.9284 88.2004 65.48 65.4565 72.0167C55.2486 74.9716 45.1302 78.2847 35.1909 82.3142C27.132 85.5377 18.3568 88.7613 11.1933 93.7757C1.6122 100.491 -3.76039 113.654 3.13444 124.399C9.22337 133.891 23.5503 139.622 33.7582 132.458C38.0563 129.503 42.9811 127.981 47.3688 125.295C41.638 128.698 45.5779 126.011 47.6374 125.295C49.2492 124.668 50.8609 124.041 52.5623 123.414C56.5917 121.892 60.6211 120.46 64.7401 119.206C81.8429 113.565 99.4829 108.998 117.302 106.133C118.287 105.954 119.361 105.864 120.346 105.685C123.839 105.148 119.272 106.312 118.914 105.864C119.182 106.222 124.018 105.237 124.734 105.237C128.763 104.879 132.882 104.521 137.001 104.521C138.971 104.521 144.881 105.864 146.493 104.969C146.224 105.148 140.494 103.805 143.717 104.61C144.344 104.789 145.06 104.879 145.687 104.969C147.03 105.237 148.373 105.954 149.717 106.133C152.224 106.491 144.075 103.357 147.03 105.058C147.478 105.327 147.926 105.595 148.373 105.864C148.642 106.043 143.449 101.745 145.598 103.715C146.941 104.969 146.583 106.401 142.911 100.223C144.702 103.267 141.568 95.1188 141.837 97.5365C141.926 98.611 142.553 99.7751 142.822 100.85C143.09 102.014 143.359 103.267 143.538 104.431C143.896 106.67 143.538 111.505 143.538 104.342C143.538 107.834 144.254 111.505 144.523 114.997C145.687 131.563 145.508 148.307 144.523 164.873C144.254 168.723 143.986 172.484 143.628 176.335C143.449 177.946 143.269 179.558 143.09 181.17C142.822 183.946 144.075 175.887 143.449 178.573C143.27 179.379 143.18 180.274 143.001 181.08C142.643 183.319 141.926 185.468 141.479 187.707C140.673 191.915 144.254 182.603 142.553 185.289C142.016 186.184 140.852 187.527 143.001 185.02C145.598 181.886 143.269 184.752 142.553 185.289C138.076 188.691 145.687 184.035 142.195 185.647C140.583 186.363 139.061 187.527 137.449 188.333C137.628 188.333 134.942 189.676 134.852 189.587C134.673 189.497 139.419 187.975 136.016 189.05C133.509 189.856 131.002 190.751 128.495 191.378C126.346 191.915 124.286 192.452 122.137 192.81C120.167 193.169 114.705 193.795 119.809 193.258C114.795 193.706 109.87 194.064 104.855 193.975C102.706 193.975 100.647 193.706 98.4979 193.527C94.9162 193.258 99.9306 193.348 99.9306 193.706C99.9306 193.706 97.4234 193.258 97.0652 193.169C95.2744 192.81 93.4835 192.094 91.6926 191.736C87.6632 190.841 93.6626 192.452 93.3939 192.542C92.8567 192.721 90.6181 191.02 90.1704 190.841C87.0364 189.766 93.7521 194.78 90.7076 191.199C90.3495 190.751 89.8122 190.214 89.3645 189.766C87.3945 188.065 91.2449 189.229 90.9763 191.915C90.9763 191.288 89.0959 188.96 88.7377 188.244C88.3795 187.527 88.0214 186.901 87.6632 186.274C85.6932 182.692 88.5586 185.289 88.0214 187.259C88.5586 185.289 85.0664 178.394 84.5292 176.155C83.3651 171.589 82.5592 166.932 81.8429 162.276C81.3952 159.321 82.8279 162.187 82.022 163.888C82.3801 163.082 81.6638 161.023 81.5742 160.217C81.3056 158.068 81.1265 155.829 80.9474 153.591C80.5893 149.024 80.4102 144.457 80.3206 139.98C80.1416 132.1 80.3206 124.22 81.1265 116.43C81.1265 115.803 81.3056 115.087 81.3056 114.46C81.6638 110.699 81.1265 116.609 80.9474 117.236C81.3952 116.072 81.3952 114.639 81.6638 113.386C81.8429 112.49 82.2906 111.505 82.4697 110.52C81.2161 119.922 63.9342 127.623 51.6668 121.624C62.1434 126.728 76.3807 124.847 82.2906 113.565C87.5736 103.536 85.5141 88.4031 74.2317 82.941L74.1422 83.12Z" fill="black"/>
<path d="M245.617 42.4674C249.288 44.8851 241.14 39.2439 244.811 41.7511C245.796 42.4674 246.423 43.6315 247.318 44.3478C242.841 40.4975 246.602 43.6315 248.124 46.2282C248.84 47.3923 249.378 48.7354 250.004 49.989C247.497 44.706 249.288 48.0191 249.646 49.5413C250.542 52.944 251.706 56.3466 252.512 59.7492C253.138 62.7042 253.676 65.6591 254.123 68.614C253.317 63.331 254.481 72.5539 254.661 74.2552C255.377 82.8514 255.556 91.5371 255.377 100.223C254.84 138.726 249.646 172.663 242.751 209.824C237.021 240.805 230.215 271.608 221.53 301.874C220.186 306.53 218.933 311.186 217.321 315.663C216.426 318.171 214.635 322.29 216.873 317.365C215.441 320.588 213.829 323.812 212.217 327.035C205.501 339.93 197.442 352.197 188.936 363.927C171.833 387.388 146.403 415.594 120.973 430.458C118.107 432.159 115.152 433.681 112.197 435.114C106.556 437.89 116.316 433.771 110.586 435.83C109.422 436.278 108.257 436.636 107.093 436.994C105.303 437.532 95.0051 439.502 101.094 438.875C97.7809 439.233 94.5574 439.233 91.2443 439.054C97.5123 439.412 89.5429 438.427 87.7521 437.89C82.6481 436.368 91.692 440.308 87.0357 437.532C85.6031 436.636 84.0808 435.83 82.6481 434.845C86.8566 437.711 80.0514 432.249 78.8873 430.995C74.4997 426.428 81.1259 434.577 77.2755 429.115C76.0219 427.324 74.7683 425.354 73.6938 423.473C72.6193 421.593 71.4552 419.534 70.4702 417.474C72.6193 422.041 70.1121 416.489 69.933 415.773C69.4853 413.892 68.2317 405.475 68.5898 411.116C68.4108 408.162 68.4108 405.207 68.5898 402.252C68.2317 407.982 68.5898 402.341 68.8585 401.177C69.3957 399.118 69.8434 397.058 70.5598 394.999C71.0075 393.566 71.5448 392.044 72.1716 390.611C70.2016 395.446 72.7984 389.626 73.1565 388.999C74.7683 386.134 76.3801 383.179 78.2605 380.403C79.4246 378.702 80.5886 377.001 81.8422 375.299C85.8717 369.748 79.0664 378.433 83.6331 373.061C86.4985 369.658 89.5429 366.345 92.5874 363.121C117.122 337.87 146.313 319.603 177.922 301.784C209.531 283.965 242.662 267.489 276.24 253.521C307.581 240.537 339.906 229.881 372.858 221.822C381.454 219.673 390.139 217.972 398.825 216.002C407.511 214.032 401.243 215.465 399.273 215.644C401.69 215.375 404.108 215.196 406.526 215.017C417.45 214.032 432.225 214.301 437.687 202.481C444.044 188.512 438.761 174.991 424.345 169.619C420.942 168.365 416.644 168.455 413.062 168.186C400.974 167.38 390.677 179.021 390.677 190.572C390.677 203.376 400.974 212.152 413.062 212.958C419.599 213.405 411.092 212.331 412.436 212.778L399.094 179.916V180.095C403.481 176.693 407.958 173.2 412.436 169.798C409.66 170.693 419.42 169.35 414.226 169.619C412.346 169.708 410.555 169.977 408.675 170.156C405.183 170.425 401.601 170.783 398.109 171.141C381.006 173.2 363.993 177.767 347.427 182.244C315.371 190.84 284.12 202.033 253.496 215.017C221.171 228.717 189.294 244.298 158.581 261.4C123.569 280.921 88.1998 303.217 60.3519 332.229C35.3693 358.197 14.6849 394.461 28.2954 431.264C41.906 468.066 76.4696 491.795 115.779 481.408C151.865 471.827 182.131 442.367 205.68 414.877C227.171 389.805 248.572 361.42 259.944 329.99C269.972 302.322 275.793 272.683 281.792 243.939C291.194 198.362 298.984 151.62 300.238 104.969C301.133 71.0317 300.238 24.7379 268.54 3.78478C244.363 -12.0644 221.977 26.6183 245.975 42.4674H245.617Z" fill="black"/>
<path d="M431.687 39.602C432.762 37.9007 433.747 36.1994 434.642 34.4981L415.301 45.6014H415.48C408.316 40.1393 401.063 34.6771 393.9 29.215C399.093 45.9596 402.586 60.1074 403.033 77.6579C403.571 97.8051 403.212 117.773 404.556 137.92C407.69 185.557 405.809 235.164 420.763 281.01C429.717 308.231 472.967 296.591 463.923 269.101C449.417 224.777 452.103 176.782 448.79 130.846C447.357 111.505 448.432 92.0743 447.626 72.6434C446.82 53.2126 442.791 35.7517 437.06 17.2162C433.926 7.00831 425.688 1.81481 415.48 0.740292H415.301C407.958 0.0239467 399.362 5.39654 395.959 11.8436C395.064 13.6345 394.079 15.3358 393.005 16.9476C377.066 41.0347 415.748 63.51 431.687 39.5125V39.602Z" fill="black"/>
<path d="M328.981 389.537C329.966 388.104 330.951 386.761 331.847 385.328C334.443 380.941 329.519 387.656 331.757 385.328C332.742 384.254 333.727 383.179 334.802 382.194C331.399 385.418 337.219 380.582 337.577 380.314C346.084 375.031 355.307 371.001 364.62 367.778C368.291 366.524 372.052 365.36 375.812 364.375C377.424 364.017 387.005 362.316 381.364 362.942C384.319 362.584 387.363 362.405 390.318 362.495C391.482 362.495 392.736 362.674 393.99 362.674C387.632 362.674 391.93 362.226 393.99 362.853C394.975 363.121 395.96 363.39 396.945 363.659C401.153 364.644 397.392 362.763 395.87 363.032C396.855 362.853 399.72 365.002 400.526 365.539C401.243 365.987 401.869 366.524 402.586 366.882C405.809 368.763 400.526 367.061 400.705 365.36C400.705 365.718 404.377 368.494 404.824 368.942C405.451 369.569 409.66 373.867 407.69 371.359C410.107 374.493 410.287 375.747 410.555 377.538C410.107 374.583 410.555 381.567 410.555 381.209C410.734 376.911 409.928 383.537 409.839 384.075C409.212 386.582 408.137 387.746 406.078 389.716C395.243 399.924 382.439 407.714 371.873 418.28C358.531 431.532 348.86 447.471 347.159 466.454C345.457 485.437 352.621 506.838 365.605 519.822C377.514 531.731 393.99 533.97 409.839 530.388C425.688 526.806 439.567 518.121 453.178 510.599C459.804 506.928 466.43 503.346 473.325 500.212C468.4 502.451 477.802 498.779 479.682 498.242C480.936 497.973 482.1 497.705 483.354 497.436C476.996 498.869 482.19 497.794 484.249 497.884C496.338 498.421 506.635 487.228 506.635 475.498C506.635 462.873 496.338 453.65 484.249 453.112C468.937 452.396 454.073 459.47 440.821 466.365C434.821 469.499 428.911 472.901 422.912 476.125C419.778 477.826 416.734 479.528 413.51 481.139C411.809 481.945 410.197 482.841 408.496 483.557C407.332 484.094 402.228 485.975 407.332 484.184C404.466 485.258 401.69 486.243 398.735 486.96C397.482 487.228 396.228 487.497 394.975 487.766C401.153 486.512 396.945 487.497 395.243 487.407C390.318 487.049 400.526 488.751 395.96 487.407C394.437 486.96 392.557 485.885 397.661 488.303C395.422 487.228 394.616 484.99 397.75 488.661C395.154 485.706 399.631 492.78 397.034 487.766C394.796 483.467 393.9 482.035 392.647 477.647C392.557 477.289 391.393 470.036 391.841 474.692C391.751 473.26 391.841 471.827 391.662 470.484C391.124 465.022 390.318 473.618 391.751 468.424C392.288 466.544 392.736 464.663 393.363 462.783C393.005 463.768 391.393 466.275 393.452 462.783C394.796 460.544 396.049 458.216 397.571 456.067C394.885 459.918 398.825 454.724 399.183 454.276C400.079 453.291 401.064 452.217 401.959 451.232C404.914 448.187 408.048 445.322 411.272 442.636C417.181 437.532 423.449 432.876 429.538 427.951C446.193 414.788 457.207 396.252 455.058 374.314C452.372 347.451 429.449 323.543 402.765 318.798C384.14 315.485 365.336 319.424 347.964 326.14C335.339 330.976 322.087 336.348 311.073 344.138C302.297 350.406 296.477 357.838 290.478 366.614C283.672 376.642 288.597 391.417 298.537 397.237C309.55 403.685 322.355 399.207 329.16 389.179L328.981 389.537Z" fill="black"/>
</svg>
