<svg width="26" height="27" viewBox="0 0 26 27" fill="none" xmlns="http://www.w3.org/2000/svg">
<mask id="mask0_1936_4424" style="mask-type:alpha" maskUnits="userSpaceOnUse" x="0" y="0" width="26" height="27">
<rect y="0.703125" width="25.5019" height="25.5019" fill="#333333"/>
</mask>
<g mask="url(#mask0_1936_4424)">
<path d="M21.1984 23.017C18.9847 23.017 16.7976 22.5344 14.637 21.5693C12.4764 20.6041 10.5107 19.236 8.73971 17.4651C6.96875 15.6941 5.60068 13.7283 4.63551 11.5677C3.67033 9.40717 3.18774 7.22003 3.18774 5.00633C3.18774 4.68756 3.294 4.42191 3.50652 4.2094C3.71903 3.99688 3.98468 3.89062 4.30345 3.89062H8.60689C8.85482 3.89062 9.07619 3.97475 9.271 4.14299C9.46581 4.31123 9.58092 4.51046 9.61634 4.74069L10.307 8.45971C10.3424 8.74306 10.3336 8.98214 10.2804 9.17695C10.2273 9.37175 10.1299 9.54 9.98824 9.68167L7.41149 12.285C7.76568 12.9402 8.18629 13.5734 8.6733 14.1843C9.16032 14.7953 9.69603 15.3842 10.2804 15.9509C10.8294 16.4999 11.405 17.009 12.0071 17.4783C12.6093 17.9476 13.2468 18.3771 13.9198 18.7667L16.4168 16.2697C16.5762 16.1103 16.7843 15.9907 17.0411 15.911C17.2979 15.8313 17.5503 15.8092 17.7982 15.8446L21.4641 16.5884C21.712 16.6593 21.9157 16.7877 22.0751 16.9736C22.2344 17.1596 22.3141 17.3676 22.3141 17.5979V21.9013C22.3141 22.2201 22.2079 22.4857 21.9954 22.6982C21.7829 22.9108 21.5172 23.017 21.1984 23.017ZM6.40204 10.2661L8.15529 8.51284L7.7037 6.01578H5.33946C5.42801 6.74187 5.55198 7.45911 5.71137 8.1675C5.87075 8.87588 6.10098 9.57541 6.40204 10.2661ZM15.9121 19.7762C16.6028 20.0772 17.3067 20.3163 18.024 20.4934C18.7412 20.6705 19.4629 20.7856 20.189 20.8387V18.5011L17.6919 17.9963L15.9121 19.7762Z" fill="#333333"/>
</g>
</svg>
