<svg width="22" height="20" viewBox="0 0 22 20" fill="none" xmlns="http://www.w3.org/2000/svg">
<path d="M3.33942 19.4213C2.755 19.4213 2.2547 19.2132 1.83852 18.7971C1.42235 18.3809 1.21426 17.8806 1.21426 17.2962V8.84867C0.806939 8.47677 0.492593 7.99861 0.271223 7.41419C0.0498524 6.82977 0.045425 6.19223 0.25794 5.50155L1.37365 1.88879C1.51532 1.42834 1.76769 1.04758 2.13073 0.746517C2.49378 0.445454 2.91438 0.294922 3.39254 0.294922H18.1624C18.6405 0.294922 19.0567 0.441026 19.4109 0.733235C19.7651 1.02544 20.0219 1.41063 20.1813 1.88879L21.297 5.50155C21.5095 6.19223 21.5051 6.82092 21.2837 7.38763C21.0623 7.95434 20.748 8.44135 20.3407 8.84867V17.2962C20.3407 17.8806 20.1326 18.3809 19.7164 18.7971C19.3002 19.2132 18.7999 19.4213 18.2155 19.4213H3.33942ZM13.1151 7.73296C13.5933 7.73296 13.9563 7.56915 14.2043 7.24152C14.4522 6.91389 14.5496 6.54642 14.4965 6.1391L13.9121 2.42008H11.84V6.35161C11.84 6.72352 11.964 7.04672 12.2119 7.32122C12.4599 7.59572 12.7609 7.73296 13.1151 7.73296ZM8.33353 7.73296C8.74085 7.73296 9.07291 7.59572 9.3297 7.32122C9.58649 7.04672 9.71488 6.72352 9.71488 6.35161V2.42008H7.64285L7.05844 6.1391C6.9876 6.56413 7.08057 6.93603 7.33736 7.25481C7.59415 7.57358 7.92621 7.73296 8.33353 7.73296ZM3.60506 7.73296C3.92383 7.73296 4.20276 7.61785 4.44184 7.38763C4.68092 7.1574 4.82702 6.86519 4.88015 6.511L5.46457 2.42008H3.39254L2.32997 5.97971C2.22371 6.3339 2.28127 6.71466 2.50264 7.12198C2.72401 7.5293 3.09148 7.73296 3.60506 7.73296ZM17.9499 7.73296C18.4634 7.73296 18.8353 7.5293 19.0656 7.12198C19.2958 6.71466 19.3489 6.3339 19.2249 5.97971L18.1092 2.42008H16.0903L16.6748 6.511C16.7279 6.86519 16.874 7.1574 17.1131 7.38763C17.3522 7.61785 17.6311 7.73296 17.9499 7.73296ZM3.33942 17.2962H18.2155V9.80499C18.127 9.84041 18.0694 9.85812 18.0428 9.85812H17.9499C17.4717 9.85812 17.0511 9.77843 16.688 9.61904C16.325 9.45965 15.9664 9.20286 15.6122 8.84867C15.2934 9.16745 14.9304 9.41538 14.523 9.59248C14.1157 9.76957 13.6818 9.85812 13.2214 9.85812C12.7432 9.85812 12.2961 9.76957 11.8799 9.59248C11.4637 9.41538 11.0962 9.16745 10.7775 8.84867C10.4764 9.16745 10.1266 9.41538 9.72816 9.59248C9.3297 9.76957 8.90024 9.85812 8.43979 9.85812C7.92621 9.85812 7.46133 9.76957 7.04515 9.59248C6.62898 9.41538 6.2615 9.16745 5.94273 8.84867C5.57083 9.22057 5.20335 9.48179 4.84031 9.63232C4.47726 9.78286 4.06551 9.85812 3.60506 9.85812H3.48552C3.44125 9.85812 3.39254 9.84041 3.33942 9.80499V17.2962Z" fill="#333333"/>
</svg>
