<svg width="26" height="26" viewBox="0 0 26 26" fill="none" xmlns="http://www.w3.org/2000/svg">
<mask id="mask0_1936_1140" style="mask-type:alpha" maskUnits="userSpaceOnUse" x="0" y="0" width="26" height="26">
<rect width="25.5019" height="25.5019" fill="#D9D9D9"/>
</mask>
<g mask="url(#mask0_1936_1140)">
<path d="M13.8134 13.389V9.56376C13.8134 9.2627 13.7116 9.01034 13.5079 8.80668C13.3043 8.60302 13.0519 8.50119 12.7508 8.50119C12.4498 8.50119 12.1974 8.60302 11.9938 8.80668C11.7901 9.01034 11.6883 9.2627 11.6883 9.56376V13.7875C11.6883 13.9292 11.7148 14.0664 11.768 14.1993C11.8211 14.3321 11.9008 14.4516 12.007 14.5579L14.9823 17.5331C15.1771 17.7279 15.425 17.8253 15.7261 17.8253C16.0271 17.8253 16.2751 17.7279 16.4699 17.5331C16.6647 17.3383 16.7621 17.0904 16.7621 16.7893C16.7621 16.4882 16.6647 16.2403 16.4699 16.0455L13.8134 13.389ZM12.7508 23.3773C11.4226 23.3773 10.1785 23.1249 9.01854 22.6202C7.85856 22.1155 6.84911 21.4336 5.99019 20.5747C5.13127 19.7158 4.44945 18.7064 3.94473 17.5464C3.44001 16.3864 3.18764 15.1423 3.18764 13.8141C3.18764 12.4859 3.44001 11.2418 3.94473 10.0818C4.44945 8.92179 5.13127 7.91234 5.99019 7.05342C6.84911 6.19451 7.85856 5.51269 9.01854 5.00796C10.1785 4.50324 11.4226 4.25088 12.7508 4.25088C14.0791 4.25088 15.3232 4.50324 16.4831 5.00796C17.6431 5.51269 18.6526 6.19451 19.5115 7.05342C20.3704 7.91234 21.0522 8.92179 21.557 10.0818C22.0617 11.2418 22.314 12.4859 22.314 13.8141C22.314 15.1423 22.0617 16.3864 21.557 17.5464C21.0522 18.7064 20.3704 19.7158 19.5115 20.5747C18.6526 21.4336 17.6431 22.1155 16.4831 22.6202C15.3232 23.1249 14.0791 23.3773 12.7508 23.3773ZM2.1782 7.75738C1.98339 7.56258 1.88599 7.31464 1.88599 7.01358C1.88599 6.71251 1.98339 6.46458 2.1782 6.26977L5.20654 3.24143C5.40135 3.04662 5.64928 2.94922 5.95035 2.94922C6.25141 2.94922 6.49934 3.04662 6.69415 3.24143C6.88896 3.43623 6.98636 3.68417 6.98636 3.98523C6.98636 4.2863 6.88896 4.53423 6.69415 4.72904L3.6658 7.75738C3.471 7.95219 3.22306 8.04959 2.922 8.04959C2.62094 8.04959 2.373 7.95219 2.1782 7.75738ZM23.3235 7.75738C23.1287 7.95219 22.8807 8.04959 22.5797 8.04959C22.2786 8.04959 22.0307 7.95219 21.8359 7.75738L18.8075 4.72904C18.6127 4.53423 18.5153 4.2863 18.5153 3.98523C18.5153 3.68417 18.6127 3.43623 18.8075 3.24143C19.0023 3.04662 19.2503 2.94922 19.5513 2.94922C19.8524 2.94922 20.1003 3.04662 20.2951 3.24143L23.3235 6.26977C23.5183 6.46458 23.6157 6.71251 23.6157 7.01358C23.6157 7.31464 23.5183 7.56258 23.3235 7.75738ZM12.7508 21.2521C14.8229 21.2521 16.5805 20.5304 18.0239 19.0871C19.4672 17.6438 20.1889 15.8861 20.1889 13.8141C20.1889 11.742 19.4672 9.98437 18.0239 8.54103C16.5805 7.0977 14.8229 6.37603 12.7508 6.37603C10.6788 6.37603 8.92113 7.0977 7.4778 8.54103C6.03447 9.98437 5.3128 11.742 5.3128 13.8141C5.3128 15.8861 6.03447 17.6438 7.4778 19.0871C8.92113 20.5304 10.6788 21.2521 12.7508 21.2521Z" fill="#333333"/>
</g>
</svg>
