<svg width="200" height="200" viewBox="0 0 200 200" fill="none" xmlns="http://www.w3.org/2000/svg">
<g clip-path="url(#clip0_897_3805)">
<rect width="200" height="200" rx="100" fill="url(#paint0_linear_897_3805)"/>
<path d="M63.3333 139.855C75.5553 148.744 87.778 155.855 100 155.855C112.222 155.855 124.445 148.744 136.667 139.855C126.592 136.789 121.481 132.211 121.333 126.122C121.333 125.037 121.341 123.495 121.349 120.601C121.349 120.142 121.35 119.671 121.352 119.189C121.372 111.429 121.405 101.189 121.451 90.7892C131.005 78.4046 127.495 63.8852 124.501 64.2472C120.831 64.6939 89.0287 34.5152 82.9287 32.9679C76.8287 31.4206 61.3333 36.4159 58.6667 50.3326C56 64.2492 54.8853 99.3279 65 113.333C67.8782 117.318 72.4116 118.877 78.6 118.009C78.6087 120.922 78.626 122.557 78.6667 125.855C78.5873 132.221 73.4767 136.792 63.3333 139.855Z" fill="url(#paint1_linear_897_3805)"/>
<path d="M78.6667 118C93.3334 116.333 102.667 110 102.667 110C102.667 110 92.0001 123.333 78.6667 126V118Z" fill="#FC9F6A"/>
<path d="M126.333 90.9992C130.927 79.9526 149.333 57.4546 133.467 43.4546C128.133 17.4546 98.6668 20.3326 79.0001 26.3326C65.7821 30.3652 55.8001 38.3326 53.6667 32.3326C40.3334 43.4546 47.0107 54.3326 55.8001 57.4546C63.7774 60.2879 77.2668 63.1212 100.204 60.4546C104.301 59.9779 103.443 72.5266 105.633 73.8832C108.917 75.9186 111.467 63.1212 120.472 66.9639C129.477 70.8066 124.133 88.6239 114.467 88.6239C111.133 88.6239 109.467 97.7886 118.467 102.122C125 105.333 123.349 98.1772 126.333 90.9992Z" fill="url(#paint2_linear_897_3805)"/>
<path d="M170 160.204C176.347 173.109 180 202.871 180 202.871H20C20 202.871 23.6547 173.105 30 160.204C36.3453 147.303 73.4 135.337 73.4 135.337C93.8753 143.332 106.405 143.332 126.581 135.332C126.581 135.332 163.653 147.299 170 160.204Z" fill="url(#paint3_linear_897_3805)"/>
<path d="M104.667 139.999L108 201.333H92L95.3333 139.999C95.3333 139.999 98.4447 136.666 100 136.666C101.555 136.666 104.667 139.999 104.667 139.999Z" fill="url(#paint4_linear_897_3805)"/>
<path d="M105.426 152.461L94.9426 146.403L95.3333 139.999C97.4075 137.777 98.9631 136.666 100 136.666C101.037 136.666 102.592 137.777 104.667 139.999L105.427 152.461H105.426Z" fill="#645050"/>
<path d="M100 136.66L93.3334 148.665L72.6667 135.999L78.6667 127.332L100 135.213L121.333 127.332L127.333 135.999L106.667 148.665L100 136.66Z" fill="white"/>
</g>
<defs>
<linearGradient id="paint0_linear_897_3805" x1="100" y1="0" x2="100" y2="200" gradientUnits="userSpaceOnUse">
<stop stop-color="#806A6A"/>
<stop offset="1" stop-color="#665654"/>
</linearGradient>
<linearGradient id="paint1_linear_897_3805" x1="96.7478" y1="32.6973" x2="96.7478" y2="155.855" gradientUnits="userSpaceOnUse">
<stop stop-color="#F7B186"/>
<stop offset="1" stop-color="#FFC299"/>
</linearGradient>
<linearGradient id="paint2_linear_897_3805" x1="92.9603" y1="22.2578" x2="92.9603" y2="102.911" gradientUnits="userSpaceOnUse">
<stop stop-color="#1D0024"/>
<stop offset="1" stop-color="#100014"/>
</linearGradient>
<linearGradient id="paint3_linear_897_3805" x1="100" y1="135.332" x2="100" y2="202.871" gradientUnits="userSpaceOnUse">
<stop stop-color="#1D0024"/>
<stop offset="1" stop-color="#100014"/>
</linearGradient>
<linearGradient id="paint4_linear_897_3805" x1="100" y1="136.666" x2="100" y2="201.333" gradientUnits="userSpaceOnUse">
<stop stop-color="#806A6A"/>
<stop offset="1" stop-color="#665654"/>
</linearGradient>
<clipPath id="clip0_897_3805">
<rect width="200" height="200" rx="100" fill="white"/>
</clipPath>
</defs>
</svg>
