<svg width="200" height="200" viewBox="0 0 200 200" fill="none" xmlns="http://www.w3.org/2000/svg">
<g clip-path="url(#clip0_897_3798)">
<rect width="200" height="200" rx="100" fill="url(#paint0_linear_897_3798)"/>
<path d="M161.333 156.668C166.222 166.001 168.667 200.001 168.667 200.001H31.3333C31.3333 200.001 33.7779 166.001 38.6666 156.668C45.9999 142.668 99.9999 124.668 99.9999 124.668C99.9999 124.668 154 142.668 161.333 156.668Z" fill="url(#paint1_linear_897_3798)"/>
<path d="M156.981 116.941L48.6759 103.853C43.3363 75.5068 49.6696 57.6475 67.6759 50.2746C75.9999 23.0006 108.398 25.2193 117.581 27.4426C148.831 35.0097 161.965 64.8426 156.981 116.941Z" fill="white"/>
<path d="M83.9998 132.666V92.6665C67.3192 92.4171 70.5725 63.5118 87.3332 72.3331C90.3332 73.6665 97.9998 69.9998 95.3332 60.9998C113.333 74.3331 138.416 50.9331 140 65.3331C143.117 93.6738 137.086 116.968 121.095 116.969C119.39 117.034 117.684 116.933 116 116.666V132.666C110.78 135.778 105.56 137.333 100.34 137.333C95.1198 137.333 89.6732 135.778 83.9998 132.666Z" fill="url(#paint2_linear_897_3798)"/>
<path d="M116 116.668V122.001C108.666 122.001 98.2218 117.223 92.6665 107.668C99.3332 112.112 107.111 115.112 116 116.668Z" fill="#FA8B54"/>
<path d="M99.978 136.651C104.539 136.433 116 134.073 116 128.975V124.668C117.223 124.668 120.723 127.556 122.524 130.001C129.641 139.668 121.747 148.335 115.308 148.335C107.184 148.335 101.8 141.547 100 138.281C98.2 141.548 92.816 148.335 84.692 148.335C78.2533 148.335 70.3587 139.668 77.476 130.001C79.2767 127.556 82.7773 124.668 84 124.668V128.975C84 134.073 95.16 136.433 99.978 136.651Z" fill="url(#paint3_linear_897_3798)"/>
</g>
<defs>
<linearGradient id="paint0_linear_897_3798" x1="100" y1="0" x2="100" y2="200" gradientUnits="userSpaceOnUse">
<stop stop-color="#1D0024"/>
<stop offset="1" stop-color="#100014"/>
</linearGradient>
<linearGradient id="paint1_linear_897_3798" x1="99.9999" y1="200.001" x2="99.9999" y2="124.668" gradientUnits="userSpaceOnUse">
<stop stop-color="#E6864E"/>
<stop offset="1" stop-color="#E67240"/>
</linearGradient>
<linearGradient id="paint2_linear_897_3798" x1="106.899" y1="60.4551" x2="106.899" y2="137.333" gradientUnits="userSpaceOnUse">
<stop stop-color="#F7B186"/>
<stop offset="1" stop-color="#FFC299"/>
</linearGradient>
<linearGradient id="paint3_linear_897_3798" x1="100" y1="148.335" x2="100" y2="124.668" gradientUnits="userSpaceOnUse">
<stop stop-color="#FCF2EB"/>
<stop offset="1" stop-color="#FFF9F5"/>
</linearGradient>
<clipPath id="clip0_897_3798">
<rect width="200" height="200" rx="100" fill="white"/>
</clipPath>
</defs>
</svg>
