<svg width="200" height="200" viewBox="0 0 200 200" fill="none" xmlns="http://www.w3.org/2000/svg">
<g clip-path="url(#clip0_897_3809)">
<rect width="200" height="200" rx="100" fill="url(#paint0_linear_897_3809)"/>
<path d="M121.333 117.333V132C121.333 133.452 99.9998 137.848 99.9998 137.848C99.9998 137.848 78.6665 134.071 78.6665 132C78.6665 128.08 78.7465 108.4 78.6665 90.1253C69.1118 77.7407 69.1118 70 76.6665 62C84.2212 54 138 50 138 50C138 50 142.034 88.8067 142.666 99.3333C142.92 103.567 145.666 117.333 135 117.333H121.333Z" fill="url(#paint1_linear_897_3809)"/>
<path d="M121.333 116.082V124.107C107.045 121.562 98.8225 116.193 96.6665 108C102.889 112.222 110.889 114.889 120.667 116C120.889 116.025 121.111 116.053 121.333 116.082Z" fill="#DE6530"/>
<path d="M170 162.206C174.231 170.809 177.564 185.032 180 204.873H20C22.4364 185.029 25.7698 170.807 30 162.206C34.216 153.634 73.3333 137.134 73.3333 137.134L126.667 137.129C126.667 137.129 165.792 153.651 170 162.206Z" fill="url(#paint2_linear_897_3809)"/>
<path d="M104.667 141.333L108 202.667H92L95.3333 141.333C95.3333 141.333 98.4447 138 100 138C101.555 138 104.667 141.333 104.667 141.333Z" fill="url(#paint3_linear_897_3809)"/>
<path d="M105.341 153.745L94.9839 147.761L95.3332 141.333C97.4074 139.111 98.963 138 99.9999 138C101.037 138 102.592 139.111 104.667 141.333L105.341 153.745Z" fill="#D24B24"/>
<path d="M99.9998 137.995L93.3332 150.001L72.6665 137.335L78.6665 128.668L99.9998 136.549L121.333 128.668L127.333 137.335L106.667 150.001L99.9998 137.995Z" fill="white"/>
<path d="M87.3468 70.1378C85.2268 68.3171 82.6508 67.0911 79.0095 68.9831C70.3768 73.4651 76.1062 90.7571 85.7668 90.4198C89.1002 90.3038 87.5722 96.9464 78.6668 101.334C78.6668 94.3338 68.0002 77.0004 67.0668 61.2191C56.3335 57.2224 59.0002 41.2311 66.3688 41.2311C65.1928 26.5704 88.6668 18.9984 97.7562 27.4111C107 16.3318 130.333 21.9984 131.742 31.6104C147.787 23.0458 158.333 47.6651 143.31 57.2224C137.128 61.1558 122.667 62.6524 101.791 62.6524C91.7742 62.6524 97.5348 86.0991 100.667 93.6671C104.667 103.334 127 104.667 134 103.667C139.467 102.886 142.333 100.667 142.667 99.3338C147.667 112.667 141.333 120.667 131.333 120.667C114.333 120.667 97.3335 115.667 94.6668 103.334C92.5442 93.5184 92.6608 77.6778 87.3468 70.1378Z" fill="url(#paint4_linear_897_3809)"/>
</g>
<defs>
<linearGradient id="paint0_linear_897_3809" x1="100" y1="200" x2="100" y2="0" gradientUnits="userSpaceOnUse">
<stop stop-color="#FFC9B3"/>
<stop offset="1" stop-color="#FFD2C2"/>
</linearGradient>
<linearGradient id="paint1_linear_897_3809" x1="107.198" y1="50" x2="107.198" y2="137.848" gradientUnits="userSpaceOnUse">
<stop stop-color="#E6864E"/>
<stop offset="1" stop-color="#EB965E"/>
</linearGradient>
<linearGradient id="paint2_linear_897_3809" x1="100" y1="137.129" x2="100" y2="204.873" gradientUnits="userSpaceOnUse">
<stop stop-color="#130027"/>
<stop offset="1" stop-color="#130017"/>
</linearGradient>
<linearGradient id="paint3_linear_897_3809" x1="100" y1="202.667" x2="100" y2="138" gradientUnits="userSpaceOnUse">
<stop stop-color="#E6864E"/>
<stop offset="1" stop-color="#E67240"/>
</linearGradient>
<linearGradient id="paint4_linear_897_3809" x1="105.232" y1="21.3301" x2="105.232" y2="120.667" gradientUnits="userSpaceOnUse">
<stop stop-color="#130027"/>
<stop offset="1" stop-color="#130017"/>
</linearGradient>
<clipPath id="clip0_897_3809">
<rect width="200" height="200" rx="100" fill="white"/>
</clipPath>
</defs>
</svg>
