<svg width="200" height="200" viewBox="0 0 200 200" fill="none" xmlns="http://www.w3.org/2000/svg">
<g clip-path="url(#clip0_897_3818)">
<rect width="200" height="200" rx="100" fill="url(#paint0_linear_897_3818)"/>
<path d="M78.6664 125.855C78.5871 132.078 73.4764 136.792 63.3331 139.855C75.5551 148.744 87.7778 155.855 99.9998 155.855C112.222 155.855 124.444 148.744 136.666 139.855C126.592 136.789 121.481 132.211 121.333 126.122C121.333 125.037 121.404 101.192 121.45 90.7886C131.005 78.4039 127.495 63.8846 124.501 64.2466C120.83 64.6939 89.0284 34.5152 82.9284 32.9679C76.8284 31.4206 61.3331 36.4159 58.6664 50.3326C55.9998 64.2492 54.8851 99.3279 64.9998 113.333C67.8778 117.318 72.4791 118.866 78.6664 117.999C78.6751 120.912 78.6664 125.855 78.6664 125.855Z" fill="url(#paint1_linear_897_3818)"/>
<path d="M78.6665 118C93.3332 116.333 102.667 110 102.667 110C102.667 110 94.6665 123.333 78.6665 126V118Z" fill="#DB6F3D"/>
<path d="M126.333 90.9992C130.927 79.9526 149.333 57.4546 133.467 43.4546C128.133 17.4546 98.6665 20.3326 78.9998 26.3326C65.7818 30.3652 55.7998 38.3326 53.6665 32.3326C40.3332 43.4546 47.0105 54.3326 55.7998 57.4546C63.7772 60.2879 77.2665 63.1212 100.204 60.4546C104.301 59.9779 103.443 72.5266 105.633 73.8832C108.917 75.9186 111.467 63.1212 120.472 66.9639C129.477 70.8066 124.133 88.6239 114.467 88.6239C111.133 88.6239 109.467 97.7886 118.467 102.122C125 105.333 123.349 98.1772 126.333 90.9992Z" fill="white"/>
<path d="M170 160.204C176.347 173.109 180 202.871 180 202.871H20C20 202.871 23.6547 173.105 30 160.204C36.3453 147.303 73.4 135.337 73.4 135.337C80.542 149.999 119.739 149.999 126.581 135.332C126.581 135.332 163.653 147.299 170 160.204Z" fill="url(#paint2_linear_897_3818)"/>
<mask id="mask0_897_3818" style="mask-type:alpha" maskUnits="userSpaceOnUse" x="20" y="135" width="160" height="68">
<path d="M170 160.204C176.347 173.109 180 202.871 180 202.871H20C20 202.871 23.6547 173.105 30 160.204C36.3453 147.303 73.4 135.337 73.4 135.337C80.542 149.999 119.739 149.999 126.581 135.332C126.581 135.332 163.653 147.299 170 160.204Z" fill="url(#paint3_linear_897_3818)"/>
</mask>
<g mask="url(#mask0_897_3818)">
<path d="M13.3335 189.332V183.999H186.667V189.332H13.3335ZM13.3335 175.999V170.665H186.667V175.999H13.3335ZM13.3335 162.665V157.332H186.667V162.665H13.3335Z" fill="#6E5C5A"/>
</g>
</g>
<defs>
<linearGradient id="paint0_linear_897_3818" x1="100" y1="200" x2="100" y2="0" gradientUnits="userSpaceOnUse">
<stop stop-color="#FFC9B3"/>
<stop offset="1" stop-color="#FFD2C2"/>
</linearGradient>
<linearGradient id="paint1_linear_897_3818" x1="96.7475" y1="32.6973" x2="96.7475" y2="155.855" gradientUnits="userSpaceOnUse">
<stop stop-color="#E6864E"/>
<stop offset="1" stop-color="#EB965E"/>
</linearGradient>
<linearGradient id="paint2_linear_897_3818" x1="100" y1="135.332" x2="100" y2="202.871" gradientUnits="userSpaceOnUse">
<stop stop-color="#1D0024"/>
<stop offset="1" stop-color="#100014"/>
</linearGradient>
<linearGradient id="paint3_linear_897_3818" x1="100" y1="135.332" x2="100" y2="202.871" gradientUnits="userSpaceOnUse">
<stop stop-color="#1D0024"/>
<stop offset="1" stop-color="#100014"/>
</linearGradient>
<clipPath id="clip0_897_3818">
<rect width="200" height="200" rx="100" fill="white"/>
</clipPath>
</defs>
</svg>
