<svg width="200" height="200" viewBox="0 0 200 200" fill="none" xmlns="http://www.w3.org/2000/svg">
<g clip-path="url(#clip0_897_3811)">
<rect width="200" height="200" rx="100" fill="url(#paint0_linear_897_3811)"/>
<path d="M107.243 33.1339C104.576 21.4673 117.221 12.5146 130.243 18.6606C160.909 33.1339 143.114 54.8006 132.114 52.4673C121.114 50.1339 109.909 44.8006 107.243 33.1339Z" fill="url(#paint1_linear_897_3811)"/>
<path d="M114.667 106.668C100.345 113.549 98.2553 113.18 66.6666 87.3347C19 48.3347 64 12.6681 112.333 31.6681C164.667 54.6681 147.134 91.0727 114.667 106.668Z" fill="url(#paint2_linear_897_3811)"/>
<path d="M116.001 134C111.112 144.667 104.889 150 100.001 150C95.1119 150 88.8892 144.667 84.0005 134V120.667C84.0005 120.667 81.8252 120.733 80.3339 120.667C64.7399 120 59.5292 94.9153 61.9766 69.8253C63.7686 51.4507 79.3339 76.6667 104.667 59C103.667 78.3333 112.001 76.3333 115.667 74C132.334 66.3333 132.667 97.6667 116.195 95.2387C116.199 95.572 116.134 108.492 116.001 134Z" fill="url(#paint3_linear_897_3811)"/>
<path d="M84 120.666C90 120.222 97.4742 116.866 106.423 110.6C103.68 120.043 96.2062 125.621 84 127.333V120.666Z" fill="#FF9768"/>
<path d="M78.4879 137.878C78.4879 137.878 79.4939 130.933 81.8526 130.338C84.2113 129.744 97.9966 129.672 98.0086 132.338C98.0086 132.828 98.4833 138.072 100.055 138.072C101.627 138.072 102.031 132.825 102.034 132.338C102.047 129.672 115.752 129.774 118.19 130.338C120.628 130.902 121.545 137.886 121.545 137.886C121.545 137.886 157.545 154.838 161.333 162.074C164.592 168.296 167.037 182.74 168.667 205.407H31.3333C32.963 182.74 35.4075 168.296 38.6666 162.074C42.4553 154.841 78.4879 137.878 78.4879 137.878Z" fill="url(#paint4_linear_897_3811)"/>
<path d="M97.3333 183.333C97.3333 182.806 97.4896 182.29 97.7827 181.852C98.0757 181.413 98.4922 181.071 98.9794 180.87C99.4667 180.668 100.003 180.615 100.52 180.718C101.037 180.821 101.513 181.075 101.886 181.448C102.258 181.821 102.512 182.296 102.615 182.813C102.718 183.33 102.665 183.867 102.464 184.354C102.262 184.841 101.92 185.258 101.481 185.551C101.043 185.844 100.527 186 99.9999 186C99.2927 186 98.6144 185.719 98.1143 185.219C97.6142 184.719 97.3333 184.041 97.3333 183.333ZM97.3333 170C97.3333 169.473 97.4896 168.957 97.7827 168.518C98.0757 168.08 98.4922 167.738 98.9794 167.536C99.4667 167.334 100.003 167.282 100.52 167.385C101.037 167.487 101.513 167.741 101.886 168.114C102.258 168.487 102.512 168.962 102.615 169.48C102.718 169.997 102.665 170.533 102.464 171.02C102.262 171.508 101.92 171.924 101.481 172.217C101.043 172.51 100.527 172.667 99.9999 172.667C99.2927 172.667 98.6144 172.386 98.1143 171.886C97.6142 171.386 97.3333 170.707 97.3333 170ZM97.3333 156.667C97.3333 156.139 97.4896 155.624 97.7827 155.185C98.0757 154.747 98.4922 154.405 98.9794 154.203C99.4667 154.001 100.003 153.948 100.52 154.051C101.037 154.154 101.513 154.408 101.886 154.781C102.258 155.154 102.512 155.629 102.615 156.146C102.718 156.664 102.665 157.2 102.464 157.687C102.262 158.174 101.92 158.591 101.481 158.884C101.043 159.177 100.527 159.333 99.9999 159.333C99.2927 159.333 98.6144 159.052 98.1143 158.552C97.6142 158.052 97.3333 157.374 97.3333 156.667Z" fill="#664F4D"/>
<path d="M107.06 52.9532C96.3932 79.6198 102.393 92.6198 110.726 108.287C119.06 123.953 108.726 138.62 108.726 138.62C108.726 138.62 120.726 130.953 120.726 113.953C120.726 96.9532 108.726 86.2865 118.726 72.2865C128.726 58.2865 117.726 26.2865 107.06 52.9532Z" fill="url(#paint5_linear_897_3811)"/>
</g>
<defs>
<linearGradient id="paint0_linear_897_3811" x1="100" y1="0" x2="100" y2="200" gradientUnits="userSpaceOnUse">
<stop stop-color="#806A6A"/>
<stop offset="1" stop-color="#665654"/>
</linearGradient>
<linearGradient id="paint1_linear_897_3811" x1="127.108" y1="16.6641" x2="127.108" y2="52.6412" gradientUnits="userSpaceOnUse">
<stop stop-color="#1D0024"/>
<stop offset="1" stop-color="#100014"/>
</linearGradient>
<linearGradient id="paint2_linear_897_3811" x1="95.9627" y1="26.4062" x2="95.9627" y2="110.457" gradientUnits="userSpaceOnUse">
<stop stop-color="#1D0024"/>
<stop offset="1" stop-color="#100014"/>
</linearGradient>
<linearGradient id="paint3_linear_897_3811" x1="94.8804" y1="59" x2="94.8804" y2="150" gradientUnits="userSpaceOnUse">
<stop stop-color="#F7B186"/>
<stop offset="1" stop-color="#FFC299"/>
</linearGradient>
<linearGradient id="paint4_linear_897_3811" x1="99.9999" y1="205.407" x2="99.9999" y2="130" gradientUnits="userSpaceOnUse">
<stop stop-color="#FCF2EB"/>
<stop offset="1" stop-color="#FFF9F5"/>
</linearGradient>
<linearGradient id="paint5_linear_897_3811" x1="111.994" y1="42.668" x2="111.994" y2="138.62" gradientUnits="userSpaceOnUse">
<stop stop-color="#1D0024"/>
<stop offset="1" stop-color="#100014"/>
</linearGradient>
<clipPath id="clip0_897_3811">
<rect width="200" height="200" rx="100" fill="white"/>
</clipPath>
</defs>
</svg>
