<svg width="200" height="200" viewBox="0 0 200 200" fill="none" xmlns="http://www.w3.org/2000/svg">
<g clip-path="url(#clip0_897_3808)">
<rect width="200" height="200" rx="100" fill="url(#paint0_linear_897_3808)"/>
<path d="M148.333 106.334C153.741 88.3736 157.075 57.6676 134.333 36.6676C116.953 20.6183 69.9999 19.001 53.6666 54.001C50.9399 59.8436 54.6666 69.001 61.9999 68.6676C64.8819 68.5343 66.6666 77.6676 68.3333 83.3343C65.9999 106.334 45.2119 106.759 34.6666 124.334C21.6666 146.001 37.6666 178.001 75.9999 178.001C114.333 178.001 136.308 146.271 148.333 106.334Z" fill="url(#paint1_linear_897_3808)"/>
<path d="M161.333 158.668C166.222 168.001 168.667 202.001 168.667 202.001H31.3333C31.3333 202.001 33.7779 168.001 38.6666 158.668C45.9999 144.668 99.9999 126.668 99.9999 126.668C99.9999 126.668 154 144.668 161.333 158.668Z" fill="url(#paint2_linear_897_3808)"/>
<path d="M116 134.667C116 134.667 107.489 139.334 99.66 139.334C91.8307 139.334 84 134.667 84 134.667V120.001C82.3157 120.267 80.6094 120.368 78.9054 120.303C62.9134 120.302 56.8834 97.008 60 68.6673C62 68.6673 66.6667 68.6673 73.3334 59.334C71.6667 72.334 91 70.334 98.3334 60.0007C94.6667 72.334 104.333 80.6673 112.667 75.6673C129.007 65.8627 132.681 95.7513 116 96.0006V134.667Z" fill="url(#paint3_linear_897_3808)"/>
<path d="M84 120C92.2699 118.477 100.183 115.425 107.333 111C107.333 111 99 125.333 84 125.333V120Z" fill="#FFB597"/>
<path d="M100.022 138.651C104.84 138.433 116 136.073 116 130.975V126.668C117.223 126.668 120.723 129.556 122.524 132.001C129.641 141.668 121.747 150.335 115.308 150.335C107.184 150.335 101.8 143.547 100 140.281C98.2 143.548 92.816 150.335 84.692 150.335C78.2533 150.335 70.3587 141.668 77.476 132.001C79.2767 129.556 82.7773 126.668 84 126.668V130.975C84 136.073 95.4613 138.433 100.022 138.651Z" fill="white"/>
</g>
<defs>
<linearGradient id="paint0_linear_897_3808" x1="100" y1="0" x2="100" y2="200" gradientUnits="userSpaceOnUse">
<stop stop-color="#1D0024"/>
<stop offset="1" stop-color="#100014"/>
</linearGradient>
<linearGradient id="paint1_linear_897_3808" x1="91.2547" y1="178.001" x2="91.2547" y2="25.7266" gradientUnits="userSpaceOnUse">
<stop stop-color="#E6864E"/>
<stop offset="1" stop-color="#E67240"/>
</linearGradient>
<linearGradient id="paint2_linear_897_3808" x1="99.9999" y1="202.001" x2="99.9999" y2="126.668" gradientUnits="userSpaceOnUse">
<stop stop-color="#FFC9B3"/>
<stop offset="1" stop-color="#FFD2C2"/>
</linearGradient>
<linearGradient id="paint3_linear_897_3808" x1="93.0311" y1="59.334" x2="93.0311" y2="139.334" gradientUnits="userSpaceOnUse">
<stop stop-color="#FFD4B3"/>
<stop offset="1" stop-color="#FFDCC2"/>
</linearGradient>
<clipPath id="clip0_897_3808">
<rect width="200" height="200" rx="100" fill="white"/>
</clipPath>
</defs>
</svg>
