<svg width="200" height="200" viewBox="0 0 200 200" fill="none" xmlns="http://www.w3.org/2000/svg">
<g clip-path="url(#clip0_897_3817)">
<rect width="200" height="200" rx="100" fill="url(#paint0_linear_897_3817)"/>
<path d="M121.333 117.333V132.333C121.333 135.222 78.6667 134.251 78.6667 130.085C78.6667 126.165 78.7467 108.401 78.6667 90.1253C69.1121 77.7407 69.1121 70 76.6667 62C84.2214 54 138 50 138 50C138 50 142.035 88.8067 142.667 99.3333C142.921 103.567 145.667 117.333 135 117.333H121.333Z" fill="url(#paint1_linear_897_3817)"/>
<g style="mix-blend-mode:multiply">
<path d="M121.317 116.052C112.632 115.104 104.237 112.362 96.6667 108C96.6667 108 102 120.667 121.317 124.104V116.052Z" fill="#FFD7B8"/>
</g>
<path d="M170 162.206C174.231 170.809 177.564 185.031 180 204.873H20C22.4364 185.029 25.7698 170.807 30 162.206C34.216 153.633 73.3333 137.133 73.3333 137.133C73.3333 137.133 74.112 129.591 76 128.51C77.888 127.429 121.751 127.429 124 128.51C126.249 129.591 126.667 137.129 126.667 137.129C126.667 137.129 165.792 153.651 170 162.206Z" fill="url(#paint2_linear_897_3817)"/>
<path d="M87.3466 70.1378C85.2266 68.3171 82.6506 67.0911 79.0092 68.9831C70.3766 73.4651 76.1059 90.7571 85.7666 90.4198C89.0999 90.3038 87.5719 96.9464 78.6666 101.334C78.6666 94.3338 67.9999 77.0004 67.0666 61.2191C56.3332 57.2224 58.9999 41.2311 66.3686 41.2311C65.1926 26.5704 88.6666 18.9984 97.7559 27.4111C107 16.3318 130.333 21.9984 131.742 31.6104C147.787 23.0458 158.333 47.6651 143.31 57.2224C137.128 61.1558 122.667 62.6524 101.791 62.6524C91.7739 62.6524 97.5346 86.0991 100.667 93.6671C104.667 103.334 127 104.667 134 103.667C139.467 102.886 142.333 100.667 142.667 99.3338C147.667 112.667 141.333 120.667 131.333 120.667C114.333 120.667 97.3332 115.667 94.6666 103.334C92.5439 93.5184 92.6606 77.6778 87.3466 70.1378Z" fill="url(#paint3_linear_897_3817)"/>
</g>
<defs>
<linearGradient id="paint0_linear_897_3817" x1="100" y1="0" x2="100" y2="200" gradientUnits="userSpaceOnUse">
<stop stop-color="#1D0024"/>
<stop offset="1" stop-color="#100014"/>
</linearGradient>
<linearGradient id="paint1_linear_897_3817" x1="107.198" y1="50" x2="107.198" y2="133.991" gradientUnits="userSpaceOnUse">
<stop stop-color="#FFD4B3"/>
<stop offset="1" stop-color="#FFDCC2"/>
</linearGradient>
<linearGradient id="paint2_linear_897_3817" x1="100" y1="127.699" x2="100" y2="204.873" gradientUnits="userSpaceOnUse">
<stop stop-color="#806A6A"/>
<stop offset="1" stop-color="#665654"/>
</linearGradient>
<linearGradient id="paint3_linear_897_3817" x1="105.232" y1="120.667" x2="105.232" y2="21.3301" gradientUnits="userSpaceOnUse">
<stop stop-color="#E6864E"/>
<stop offset="1" stop-color="#E67240"/>
</linearGradient>
<clipPath id="clip0_897_3817">
<rect width="200" height="200" rx="100" fill="white"/>
</clipPath>
</defs>
</svg>
