<svg width="200" height="200" viewBox="0 0 200 200" fill="none" xmlns="http://www.w3.org/2000/svg">
<g clip-path="url(#clip0_897_3800)">
<rect width="200" height="200" rx="100" fill="url(#paint0_linear_897_3800)"/>
<path d="M82.1953 139.249C87.9689 129.649 101.224 111.248 132.787 85.3916C180.413 46.375 135.463 10.6878 87.1739 29.6946C82.0081 31.7281 67.6934 23.5876 54.4333 32.1637C45.8796 37.696 49.2085 42.0316 45.8778 46.3672C42.5472 50.7029 29.7066 50.4477 26.8936 61.7058C25.2276 68.3756 29.8379 75.362 29.2213 80.3822C28.6046 85.4024 23.7377 89.9276 23.5055 96.555C23.405 99.3541 23.8569 102.146 24.8354 104.77C25.8139 107.395 27.2998 109.801 29.2083 111.851C31.1169 113.901 33.4105 115.555 35.9584 116.718C38.5063 117.882 41.2584 118.532 44.0575 118.632C44.0804 124.166 46.2411 129.476 50.0881 133.454C53.9351 137.432 59.1707 139.769 64.7006 139.977C68.2464 140.107 71.7681 139.344 74.9426 137.759C78.0923 140.662 80.7962 141.575 82.1953 139.249Z" fill="url(#paint1_linear_897_3800)"/>
<path d="M83.3333 129.333C83.3333 123.333 83.1293 93.738 83.1393 93.238C66.6666 95.666 67 64.3327 83.6666 71.9994C87.3333 74.3327 97.6666 71.9994 96.6666 52.666C114.667 71.9994 135.565 49.45 137.357 67.8247C139.804 92.9147 137.342 119.172 121.749 119.174C120.044 119.153 118.343 118.983 116.667 118.666V129.333C116.667 135.999 128.667 139.333 128.667 139.333C128.667 139.333 107.939 158.866 99.3333 158.758C90.728 158.65 71.3333 139.333 71.3333 139.333C71.3333 139.333 83.3333 135.999 83.3333 129.333Z" fill="url(#paint2_linear_897_3800)"/>
<path style="mix-blend-mode:multiply" opacity="0.7" d="M116.666 118.662C108.396 116.827 100.558 113.409 93.5869 108.596C93.5869 108.596 99.339 122.658 116.645 125.326L116.666 118.662Z" fill="url(#paint3_linear_897_3800)"/>
<path d="M161.333 159.333C166.17 170.081 168.667 202.667 168.667 202.667H31.3335C31.3335 202.667 33.8302 170.081 38.6668 159.333C42.9042 149.918 70.8262 139.107 79.0088 136C83.7335 141.285 90.5042 144.667 100 144.667C109.496 144.667 116.267 141.285 120.992 136C129.174 139.107 157.096 149.918 161.333 159.333Z" fill="url(#paint4_linear_897_3800)"/>
<path d="M37.3834 159.55C41.0114 152.651 52.9521 145.412 63.9934 140.533C69.5001 138.099 86.0001 208 86.0001 208H30.7221C30.7221 208 30.0561 173.484 37.3834 159.55Z" fill="url(#paint5_linear_897_3800)"/>
</g>
<defs>
<linearGradient id="paint0_linear_897_3800" x1="100" y1="0" x2="100" y2="200" gradientUnits="userSpaceOnUse">
<stop stop-color="#806A6A"/>
<stop offset="1" stop-color="#665654"/>
</linearGradient>
<linearGradient id="paint1_linear_897_3800" x1="90.0776" y1="23.5603" x2="85.971" y2="140.776" gradientUnits="userSpaceOnUse">
<stop stop-color="#1D0024"/>
<stop offset="1" stop-color="#100014"/>
</linearGradient>
<linearGradient id="paint2_linear_897_3800" x1="104.573" y1="52.666" x2="104.573" y2="158.758" gradientUnits="userSpaceOnUse">
<stop stop-color="#E6864E"/>
<stop offset="1" stop-color="#EB965E"/>
</linearGradient>
<linearGradient id="paint3_linear_897_3800" x1="97.9454" y1="111.742" x2="101.404" y2="127.299" gradientUnits="userSpaceOnUse">
<stop stop-color="#E68349"/>
<stop offset="1" stop-color="#F09960"/>
</linearGradient>
<linearGradient id="paint4_linear_897_3800" x1="100" y1="202.667" x2="100" y2="136" gradientUnits="userSpaceOnUse">
<stop stop-color="#FFC9B3"/>
<stop offset="1" stop-color="#FFD2C2"/>
</linearGradient>
<linearGradient id="paint5_linear_897_3800" x1="58.3532" y1="208" x2="58.3532" y2="140.471" gradientUnits="userSpaceOnUse">
<stop stop-color="#FCF2EB"/>
<stop offset="1" stop-color="#FFF9F5"/>
</linearGradient>
<clipPath id="clip0_897_3800">
<rect width="200" height="200" rx="100" fill="white"/>
</clipPath>
</defs>
</svg>
