<svg width="200" height="200" viewBox="0 0 200 200" fill="none" xmlns="http://www.w3.org/2000/svg">
<g clip-path="url(#clip0_897_3813)">
<rect width="200" height="200" rx="100" fill="url(#paint0_linear_897_3813)"/>
<path d="M120.667 115.999V123.999C120.667 134.665 136 139.332 136 139.332C136 139.332 118.333 152.665 100 152.665C81.6667 152.665 64 139.332 64 139.332C64 139.332 79.454 134.665 79.3333 123.999C79.2127 113.332 79.2933 107.065 79.2127 88.7908C69.658 76.4061 70.2713 68.0941 75.496 62.2488C93 42.6655 140.667 49.3321 140.667 49.3321C140.667 49.3321 145.115 97.3275 135 111.332C130.667 117.332 120.667 115.999 120.667 115.999Z" fill="url(#paint1_linear_897_3813)"/>
<path style="mix-blend-mode:multiply" opacity="0.6" d="M120.667 116C106 114.333 97.3335 108 97.3335 108C102.805 116.095 111.144 121.813 120.667 124V116Z" fill="url(#paint2_linear_897_3813)"/>
<path d="M170 159.538C176.347 172.443 180 202.205 180 202.205H20C20 202.205 23.6547 172.439 30 159.538C36.3453 146.637 73.4 134.671 73.4 134.671C80.542 149.333 119.739 149.333 126.581 134.666C126.581 134.666 163.653 146.633 170 159.538Z" fill="url(#paint3_linear_897_3813)"/>
<path d="M97.3335 185.333C97.3335 184.806 97.4899 184.29 97.7829 183.852C98.0759 183.413 98.4924 183.071 98.9797 182.87C99.4669 182.668 100.003 182.615 100.52 182.718C101.038 182.821 101.513 183.075 101.886 183.448C102.259 183.821 102.513 184.296 102.616 184.813C102.718 185.33 102.666 185.867 102.464 186.354C102.262 186.841 101.92 187.258 101.482 187.551C101.043 187.844 100.528 188 100 188C99.2929 188 98.6146 187.719 98.1145 187.219C97.6144 186.719 97.3335 186.041 97.3335 185.333ZM97.3335 172C97.3335 171.473 97.4899 170.957 97.7829 170.518C98.0759 170.08 98.4924 169.738 98.9797 169.536C99.4669 169.334 100.003 169.282 100.52 169.385C101.038 169.487 101.513 169.741 101.886 170.114C102.259 170.487 102.513 170.962 102.616 171.48C102.718 171.997 102.666 172.533 102.464 173.02C102.262 173.508 101.92 173.924 101.482 174.217C101.043 174.51 100.528 174.667 100 174.667C99.2929 174.667 98.6146 174.386 98.1145 173.886C97.6144 173.386 97.3335 172.707 97.3335 172ZM97.3335 158.667C97.3335 158.139 97.4899 157.624 97.7829 157.185C98.0759 156.747 98.4924 156.405 98.9797 156.203C99.4669 156.001 100.003 155.948 100.52 156.051C101.038 156.154 101.513 156.408 101.886 156.781C102.259 157.154 102.513 157.629 102.616 158.146C102.718 158.664 102.666 159.2 102.464 159.687C102.262 160.174 101.92 160.591 101.482 160.884C101.043 161.177 100.528 161.333 100 161.333C99.2929 161.333 98.6146 161.052 98.1145 160.552C97.6144 160.052 97.3335 159.374 97.3335 158.667Z" fill="white"/>
<path d="M87.4367 68.8057C85.3167 66.9851 82.7407 65.7591 79.0993 67.6511C70.4667 72.1331 77 89.3331 84.6667 89.3331C86.6667 89.3331 87.6613 95.6144 78.7567 99.9997C78.7567 92.9997 68.09 75.6664 67.1567 59.8851C56.4233 55.8884 59.09 39.8971 66.4587 39.8971C65.2827 25.2384 88.7567 17.6664 97.846 26.0791C107.09 14.9997 130.423 20.6664 131.832 30.2784C147.877 21.7137 158.423 46.3331 143.4 55.8904C137.218 59.8237 122.757 61.3204 101.881 61.3204C98.73 61.3204 96.9647 62.1031 97.846 65.9997C99.552 73.5504 95.5913 78.3064 87.4367 68.8057Z" fill="url(#paint4_linear_897_3813)"/>
</g>
<defs>
<linearGradient id="paint0_linear_897_3813" x1="100" y1="200" x2="100" y2="0" gradientUnits="userSpaceOnUse">
<stop stop-color="#FFC9B3"/>
<stop offset="1" stop-color="#FFD2C2"/>
</linearGradient>
<linearGradient id="paint1_linear_897_3813" x1="102.82" y1="48.2383" x2="102.82" y2="152.665" gradientUnits="userSpaceOnUse">
<stop stop-color="#E6864E"/>
<stop offset="1" stop-color="#EB965E"/>
</linearGradient>
<linearGradient id="paint2_linear_897_3813" x1="116.257" y1="111.008" x2="112.17" y2="126.483" gradientUnits="userSpaceOnUse">
<stop stop-color="#E07A3F"/>
<stop offset="1" stop-color="#EB9154"/>
</linearGradient>
<linearGradient id="paint3_linear_897_3813" x1="100" y1="134.666" x2="100" y2="202.205" gradientUnits="userSpaceOnUse">
<stop stop-color="#1D0024"/>
<stop offset="1" stop-color="#100014"/>
</linearGradient>
<linearGradient id="paint4_linear_897_3813" x1="105.322" y1="19.998" x2="105.322" y2="99.9997" gradientUnits="userSpaceOnUse">
<stop stop-color="#1D0024"/>
<stop offset="1" stop-color="#100014"/>
</linearGradient>
<clipPath id="clip0_897_3813">
<rect width="200" height="200" rx="100" fill="white"/>
</clipPath>
</defs>
</svg>
