<svg width="200" height="200" viewBox="0 0 200 200" fill="none" xmlns="http://www.w3.org/2000/svg">
<g clip-path="url(#clip0_897_3812)">
<rect width="200" height="200" rx="100" fill="url(#paint0_linear_897_3812)"/>
<path d="M161.333 156.668C166.222 166.001 168.667 200.001 168.667 200.001H31.3335C31.3335 200.001 33.7782 166.001 38.6668 156.668C46.0002 142.668 100 124.668 100 124.668C100 124.668 154 142.668 161.333 156.668Z" fill="url(#paint1_linear_897_3812)"/>
<path d="M97.3335 184.001C97.3335 183.474 97.4899 182.958 97.7829 182.52C98.0759 182.081 98.4924 181.739 98.9797 181.538C99.4669 181.336 100.003 181.283 100.52 181.386C101.038 181.489 101.513 181.743 101.886 182.116C102.259 182.489 102.513 182.964 102.616 183.481C102.718 183.998 102.666 184.535 102.464 185.022C102.262 185.509 101.92 185.926 101.482 186.219C101.043 186.512 100.528 186.668 100 186.668C99.2929 186.668 98.6146 186.387 98.1145 185.887C97.6144 185.387 97.3335 184.709 97.3335 184.001ZM97.3335 170.668C97.3335 170.141 97.4899 169.625 97.7829 169.186C98.0759 168.748 98.4924 168.406 98.9797 168.204C99.4669 168.002 100.003 167.95 100.52 168.053C101.038 168.155 101.513 168.409 101.886 168.782C102.259 169.155 102.513 169.63 102.616 170.148C102.718 170.665 102.666 171.201 102.464 171.688C102.262 172.176 101.92 172.592 101.482 172.885C101.043 173.178 100.528 173.335 100 173.335C99.2929 173.335 98.6146 173.054 98.1145 172.554C97.6144 172.053 97.3335 171.375 97.3335 170.668ZM97.3335 157.335C97.3335 156.807 97.4899 156.292 97.7829 155.853C98.0759 155.415 98.4924 155.073 98.9797 154.871C99.4669 154.669 100.003 154.616 100.52 154.719C101.038 154.822 101.513 155.076 101.886 155.449C102.259 155.822 102.513 156.297 102.616 156.814C102.718 157.332 102.666 157.868 102.464 158.355C102.262 158.842 101.92 159.259 101.482 159.552C101.043 159.845 100.528 160.001 100 160.001C99.2929 160.001 98.6146 159.72 98.1145 159.22C97.6144 158.72 97.3335 158.042 97.3335 157.335Z" fill="white"/>
<path d="M156.981 116.941L48.6761 103.853C43.3365 75.5068 49.6699 57.6475 67.6761 50.2746C76.0001 23.0006 108.398 25.2193 117.581 27.4426C148.832 35.0097 161.965 64.8426 156.981 116.941Z" fill="url(#paint2_linear_897_3812)"/>
<path d="M84.0001 132.666V92.6665C67.3194 92.4171 70.5727 63.5118 87.3334 72.3331C90.3334 73.6665 98.0001 69.9998 95.3334 60.9998C113.333 74.3331 138.416 50.9331 140 65.3331C143.117 93.6738 137.086 116.968 121.095 116.969C119.391 117.034 117.684 116.933 116 116.666V132.666C110.78 135.778 105.56 137.333 100.34 137.333C95.1201 137.333 89.6734 135.778 84.0001 132.666Z" fill="#FFDBC9"/>
<path d="M116 116.668V122.001C106 122.001 98.2225 117.224 92.667 107.668C99.3337 112.112 107.111 115.112 116 116.668Z" fill="#FFBC9E"/>
<path d="M99.9782 136.651C104.539 136.433 116 134.073 116 128.975V124.668C117.223 124.668 120.724 127.556 122.524 130.001C129.642 139.668 121.747 148.335 115.308 148.335C107.184 148.335 101.8 141.547 100 138.281C98.2002 141.548 92.8162 148.335 84.6922 148.335C78.2536 148.335 70.3589 139.668 77.4762 130.001C79.2769 127.556 82.7776 124.668 84.0002 124.668V128.975C84.0002 134.073 95.1602 136.433 99.9782 136.651Z" fill="white"/>
</g>
<defs>
<linearGradient id="paint0_linear_897_3812" x1="100" y1="200" x2="100" y2="0" gradientUnits="userSpaceOnUse">
<stop stop-color="#FFC9B3"/>
<stop offset="1" stop-color="#FFD2C2"/>
</linearGradient>
<linearGradient id="paint1_linear_897_3812" x1="100" y1="124.668" x2="100" y2="200.001" gradientUnits="userSpaceOnUse">
<stop stop-color="#1D0024"/>
<stop offset="1" stop-color="#100014"/>
</linearGradient>
<linearGradient id="paint2_linear_897_3812" x1="102.427" y1="116.941" x2="102.427" y2="26.2227" gradientUnits="userSpaceOnUse">
<stop stop-color="#E6864E"/>
<stop offset="1" stop-color="#E67240"/>
</linearGradient>
<clipPath id="clip0_897_3812">
<rect width="200" height="200" rx="100" fill="white"/>
</clipPath>
</defs>
</svg>
